<svg width="120" height="120" viewBox="0 0 120 120" fill="none" xmlns="http://www.w3.org/2000/svg">
<path d="M111.48 27.2328C111.099 26.5928 110.699 25.9608 110.28 25.3368C104.719 17.0928 95.1456 11.4552 85.728 8.90639C81.5961 7.80726 77.3513 7.18797 73.0776 7.06079C45.0888 6.10079 33.9408 28.1808 24.6912 33.8616C15.4416 39.5424 1.20002 49.2792 2.16002 69.6768C3.12002 90.0744 17.8128 109.277 46.2744 110.477C74.736 111.677 76.6344 98.856 92.5248 94.1112C103.042 90.972 110.525 80.3688 114.173 70.5696C119.16 57.2112 118.925 39.8664 111.48 27.2328Z" fill="#00A9F6"/>
<path opacity="0.7" d="M111.48 27.2328C111.099 26.5928 110.699 25.9608 110.28 25.3368C104.719 17.0928 95.1456 11.4552 85.728 8.90639C81.5961 7.80726 77.3513 7.18797 73.0776 7.06079C45.0888 6.10079 33.9408 28.1808 24.6912 33.8616C15.4416 39.5424 1.20002 49.2792 2.16002 69.6768C3.12002 90.0744 17.8128 109.277 46.2744 110.477C74.736 111.677 76.6344 98.856 92.5248 94.1112C103.042 90.972 110.525 80.3688 114.173 70.5696C119.16 57.2112 118.925 39.8664 111.48 27.2328Z" fill="white"/>
<path d="M15.552 109.154H117.595" stroke="#263238" stroke-miterlimit="10"/>
<path d="M7.48322 109.154H13.812" stroke="#263238" stroke-miterlimit="10"/>
<path d="M51.8736 40.08V32.52H51.1896V22.8456C51.1899 22.0622 51.0359 21.2864 50.7363 20.5625C50.4367 19.8387 49.9975 19.1809 49.4436 18.6269C48.8898 18.0728 48.2322 17.6333 47.5085 17.3334C46.7848 17.0336 46.009 16.8792 45.2256 16.8792H13.1808C11.5984 16.8792 10.0809 17.5078 8.96193 18.6267C7.84302 19.7456 7.21442 21.2632 7.21442 22.8456V99.0288C7.21442 100.611 7.84302 102.129 8.96193 103.248C10.0809 104.367 11.5984 104.995 13.1808 104.995H45.2256C46.009 104.995 46.7848 104.841 47.5085 104.541C48.2322 104.241 48.8898 103.802 49.4436 103.248C49.9975 102.693 50.4367 102.036 50.7363 101.312C51.0359 100.588 51.1899 99.8122 51.1896 99.0288V46.524H51.8736V42.0576H51.1896V40.08H51.8736Z" fill="#707070" stroke="#263238" stroke-linejoin="round"/>
<path d="M44.1792 104.172H14.2248C12.5489 104.172 10.9416 103.506 9.75649 102.321C8.57141 101.136 7.90564 99.5287 7.90564 97.8528V24.0216C7.90564 20.5296 9.69604 17.7 14.2248 17.7H44.1792C48.3336 17.6448 50.5008 20.5296 50.5008 24.0216V97.8528C50.5008 98.6828 50.3373 99.5048 50.0196 100.272C49.7019 101.038 49.2362 101.735 48.6491 102.322C48.0621 102.909 47.3652 103.374 46.5982 103.692C45.8313 104.009 45.0093 104.172 44.1792 104.172V104.172Z" fill="#263238" stroke="#263238" stroke-linejoin="round"/>
<path d="M31.5216 18.672L31.5096 18.7176C31.1592 20.0232 30.3528 20.8776 29.46 20.8776H28.9464C28.0536 20.8776 27.2472 20.0328 26.8968 18.7176V18.672L14.3976 18.6288C13.7055 18.6266 13.0198 18.761 12.3798 19.0242C11.7397 19.2874 11.1579 19.6744 10.6676 20.1629C10.1774 20.6513 9.78833 21.2318 9.52276 21.8708C9.25719 22.5099 9.12032 23.1951 9.12001 23.8872L9.10321 97.0728C9.10321 100.483 11.772 103.248 15.0672 103.248H43.3488C46.644 103.248 49.3152 100.483 49.3152 97.0728V23.3616C49.3153 22.1613 48.8421 21.0094 47.9983 20.1557C47.1546 19.3021 46.0082 18.8155 44.808 18.8016L31.5216 18.672Z" fill="white" stroke="#263238" stroke-miterlimit="10"/>
<path d="M49.3104 24.6912V23.3616C49.3105 22.1613 48.8373 21.0094 47.9935 20.1557C47.1497 19.3021 46.0034 18.8155 44.8032 18.8016L31.5216 18.6648L31.5096 18.7104C31.1592 20.016 30.3528 20.8704 29.46 20.8704H28.9464C28.0536 20.8704 27.2472 20.0256 26.8968 18.7104V18.6648L14.3976 18.6216C13.7049 18.6194 13.0186 18.754 12.3781 19.0177C11.7376 19.2814 11.1554 19.669 10.6651 20.1582C10.1747 20.6474 9.78582 21.2287 9.52067 21.8686C9.25552 22.5085 9.11936 23.1945 9.12 23.8872V24.6912H49.3104Z" fill="#DBDBDB" stroke="#263238" stroke-miterlimit="10"/>
<path d="M29.64 18.528C29.64 18.4168 29.607 18.3082 29.5452 18.2158C29.4834 18.1234 29.3956 18.0514 29.2928 18.0089C29.19 17.9665 29.077 17.9555 28.968 17.9774C28.859 17.9993 28.7589 18.053 28.6805 18.1318C28.602 18.2106 28.5487 18.3108 28.5273 18.4199C28.5059 18.529 28.5174 18.642 28.5603 18.7446C28.6032 18.8472 28.6755 18.9347 28.7682 18.9961C28.8609 19.0576 28.9697 19.0901 29.0808 19.0896C29.1545 19.0896 29.2274 19.0751 29.2954 19.0468C29.3634 19.0186 29.4252 18.9772 29.4771 18.925C29.5291 18.8728 29.5702 18.8109 29.5982 18.7428C29.6261 18.6746 29.6404 18.6017 29.64 18.528V18.528Z" fill="#707070"/>
<path d="M13.056 19.9536C13.056 20.5224 12.42 20.7264 12.4176 21.1536V21.1824H13.0344V21.372H12.2112V21.216C12.2112 20.6088 12.8472 20.496 12.8472 19.9632C12.8472 19.7688 12.7824 19.668 12.6264 19.668C12.4704 19.668 12.4056 19.7784 12.4056 19.944V20.1096H12.2112V19.9584C12.2112 19.6704 12.3408 19.4784 12.6312 19.4784C12.9216 19.4784 13.056 19.68 13.056 19.9536Z" fill="#263238"/>
<path d="M14.0856 19.9512V19.9992C14.0937 20.0814 14.0746 20.1639 14.0313 20.2341C13.9879 20.3044 13.9227 20.3585 13.8456 20.388C13.9232 20.4169 13.9889 20.4708 14.0323 20.5412C14.0758 20.6117 14.0945 20.6946 14.0856 20.7768V20.9208C14.0856 21.2088 13.9512 21.4008 13.6608 21.4008C13.3704 21.4008 13.2384 21.2136 13.2384 20.9208V20.7936H13.44V20.9352C13.44 21.1032 13.5096 21.2064 13.6608 21.2064C13.812 21.2064 13.8792 21.1056 13.8792 20.916V20.772C13.8792 20.5848 13.8024 20.496 13.6392 20.4912H13.5264V20.304H13.6488C13.6815 20.3044 13.7138 20.2976 13.7437 20.2843C13.7735 20.2709 13.8 20.2512 13.8215 20.2265C13.8429 20.2019 13.8588 20.1729 13.8679 20.1415C13.8771 20.1101 13.8793 20.0771 13.8744 20.0448V19.9608C13.8744 19.7664 13.8072 19.668 13.656 19.668C13.5048 19.668 13.4352 19.7712 13.4352 19.9416V20.0376H13.2384V19.9512C13.2384 19.6656 13.3728 19.4712 13.6608 19.4712C13.9488 19.4712 14.0856 19.6656 14.0856 19.9512Z" fill="#263238"/>
<path d="M14.4912 20.0952V20.3544H14.2896V20.0952H14.4912ZM14.4912 21.1176V21.3768H14.2896V21.12L14.4912 21.1176Z" fill="#263238"/>
<path d="M14.9136 20.2632C14.9415 20.2138 14.9825 20.1731 15.032 20.1456C15.0816 20.1181 15.1378 20.1048 15.1944 20.1072C15.4344 20.1072 15.5424 20.2848 15.5424 20.5536V20.9208C15.5424 21.2088 15.4056 21.4008 15.12 21.4008C14.8344 21.4008 14.6976 21.2136 14.6976 20.9208V20.796H14.892V20.9352C14.892 21.1032 14.964 21.2064 15.1128 21.2064C15.2616 21.2064 15.3336 21.1032 15.3336 20.9352V20.5704C15.3336 20.4 15.264 20.2992 15.1128 20.2992C15.0856 20.2979 15.0583 20.3022 15.0327 20.3117C15.0072 20.3213 14.9838 20.3359 14.964 20.3548C14.9443 20.3736 14.9286 20.3963 14.9178 20.4214C14.9071 20.4465 14.9016 20.4735 14.9016 20.5008V20.5416H14.7048L14.7552 19.4976H15.4968V19.68H14.9448L14.9136 20.2632Z" fill="#263238"/>
<path d="M16.5888 19.9488V19.9848H16.392V19.9368C16.392 19.7664 16.3224 19.668 16.1688 19.668C16.0152 19.668 15.9288 19.7688 15.9288 19.9704V20.4C15.9506 20.3382 15.9918 20.2851 16.0464 20.2487C16.1009 20.2124 16.1658 20.1947 16.2312 20.1984C16.4712 20.1984 16.5816 20.3736 16.5816 20.6448V20.928C16.5816 21.216 16.44 21.408 16.152 21.408C15.864 21.408 15.72 21.2208 15.72 20.928V19.968C15.72 19.6704 15.8544 19.488 16.152 19.488C16.4496 19.488 16.5888 19.6608 16.5888 19.9488ZM15.9408 20.652V20.9352C15.9408 21.1032 16.0104 21.2064 16.164 21.2064C16.3176 21.2064 16.3872 21.1032 16.3872 20.9352V20.652C16.3872 20.484 16.3152 20.3808 16.164 20.3808C16.0128 20.3808 15.9408 20.484 15.9408 20.652V20.652Z" fill="#263238"/>
<path d="M37.1088 20.0328H36.5784V21.36H37.1088V20.0328Z" fill="#263238"/>
<path d="M37.8168 19.7664H37.2864V21.36H37.8168V19.7664Z" fill="#263238"/>
<path d="M38.5248 19.5768H37.9944V21.3576H38.5248V19.5768Z" fill="#263238"/>
<path d="M39.2304 23.248H38.7V25.3576H39.2304V23.248Z" fill="#263238"/>
<path d="M45.7992 21.3216H42.6144V19.3752H45.7992V21.3216ZM42.792 21.1464H45.6216V19.5528H42.792V21.1464Z" fill="#263238"/>
<path d="M44.7384 19.7448H43.0584V20.952H44.7384V19.7448Z" fill="#263238"/>
<path d="M46.0896 20.1192H45.6888V20.5776H46.0896V20.1192Z" fill="#263238"/>
<path d="M29.1792 43.68C25.7272 43.6795 22.3525 44.7028 19.482 46.6203C16.6116 48.5379 14.3742 51.2636 13.053 54.4528C11.7317 57.642 11.3859 61.1514 12.0592 64.5371C12.7326 67.9228 14.3949 71.0329 16.8358 73.4738C19.2768 75.9148 22.3868 77.577 25.7725 78.2504C29.1583 78.9237 32.6676 78.5779 35.8568 77.2566C39.046 75.9354 41.7717 73.698 43.6893 70.8276C45.6068 67.9571 46.6301 64.5825 46.6296 61.1304C46.6239 56.504 44.7835 52.0688 41.5122 48.7974C38.2408 45.5261 33.8056 43.6857 29.1792 43.68V43.68ZM14.1264 61.14C14.1226 58.2158 14.9711 55.3539 16.5682 52.9043C18.1653 50.4547 20.4417 48.5237 23.119 47.3476C25.7962 46.1714 28.7583 45.801 31.6427 46.2818C34.5271 46.7625 37.2089 48.0735 39.36 50.0544L18.0936 71.3112C15.5409 68.5393 14.1247 64.9083 14.1264 61.14V61.14ZM29.1792 76.1928C25.7932 76.1948 22.5065 75.0493 19.8552 72.9432L40.9752 51.8232C42.7303 54.0402 43.825 56.7069 44.1336 59.5176C44.4422 62.3283 43.9523 65.1691 42.72 67.714C41.4878 70.2589 39.5631 72.405 37.1668 73.906C34.7705 75.4069 31.9996 76.202 29.172 76.2L29.1792 76.1928Z" fill="#00A9F6"/>
<path d="M68.532 68.9352C68.532 68.9352 66.6264 79.524 66.2088 81.3144C65.7912 83.1048 64.7688 92.232 64.7688 94.5C64.7688 96.768 64.9464 103.62 64.9464 103.62C64.9464 103.62 64.1712 103.978 64.1712 104.275C64.1712 104.573 64.7688 106.483 64.7688 106.483L68.2872 107.796C68.2872 107.796 69.0072 106.116 69.0624 105.528C69.1176 104.94 68.6448 104.693 68.6448 103.678C68.6448 102.662 70.4352 90.852 70.9728 88.884C71.5104 86.916 73.0608 81.0096 73.3584 80.472C73.656 79.9344 75.1488 75.9984 75.1488 75.9984L75.984 76.416C75.984 76.416 76.5192 88.824 76.8192 89.5992C77.1192 90.3744 81.12 103.008 81.12 103.008C81.12 103.008 80.4648 103.306 80.88 104.023C81.2952 104.741 82.0128 106.349 82.0128 106.349C82.0128 106.349 82.6704 105.454 83.4528 105.276C84.2352 105.098 85.5408 105.871 85.5408 105.871C85.5408 105.871 86.316 104.081 86.136 103.248C85.956 102.415 85.176 100.98 85.1232 100.562C85.0704 100.145 83.4432 88.116 83.4432 88.116C83.4432 88.116 83.8608 71.292 83.8608 70.1592C83.8384 69.3863 83.6976 68.6214 83.4432 67.8912C80.9404 68.75 78.3292 69.2525 75.6864 69.384C71.4504 69.5616 69.1248 67.8336 69.1248 67.8336L68.532 68.9352Z" fill="#263238" stroke="#263238" stroke-miterlimit="10"/>
<path d="M64.7784 106.49C64.7784 106.49 62.808 108.278 62.4504 108.518C62.0928 108.758 59.5872 109.718 59.6472 110.198C59.7072 110.678 60.3672 110.974 60.3672 110.974H68.4816C68.4816 110.974 68.5392 110.734 68.6592 109.601C68.7165 108.866 68.5938 108.129 68.3016 107.453L64.7784 106.49Z" fill="white" stroke="#263238" stroke-miterlimit="10"/>
<path d="M68.5992 110.102L59.6904 110.342C59.8438 110.614 60.079 110.83 60.3624 110.959H68.4768C68.4768 110.959 68.5176 110.798 68.5992 110.102Z" fill="white" stroke="#263238" stroke-miterlimit="10"/>
<path d="M82.0176 106.349C82.0176 106.349 81.9576 107.839 81.9576 108.617C81.9576 109.394 81.84 110.297 81.8976 110.465C81.9552 110.633 82.0776 110.945 82.0776 110.945H86.7912C86.7912 110.945 86.9688 110.465 86.7312 109.572C86.4936 108.679 86.0736 108.202 85.956 107.412C85.8648 106.883 85.725 106.364 85.5384 105.862C85.5384 105.862 83.2104 104.023 82.0176 106.349Z" fill="white" stroke="#263238" stroke-miterlimit="10"/>
<path d="M86.8536 110.378C85.0608 110.378 82.8288 110.321 81.8808 110.297C81.8805 110.353 81.8861 110.41 81.8976 110.465C81.9576 110.645 82.0776 110.945 82.0776 110.945H86.7912C86.8431 110.761 86.8642 110.569 86.8536 110.378V110.378Z" fill="white" stroke="#263238" stroke-miterlimit="10"/>
<path d="M66.84 46.4736C66.84 46.4736 61.7712 51.2328 61.992 51.6768C62.2128 52.1208 63.6 55.7232 63.6 55.7232C63.6 55.7232 63.9984 58.1232 63.7776 59.6376C63.6426 60.5953 63.5976 61.5635 63.6432 62.5296C64.109 63.1168 64.6784 63.6138 65.3232 63.996C66.3024 64.5312 67.0584 65.4648 67.6824 63.9528C68.3064 62.4408 68.0376 59.7264 68.0376 59.7264C68.0376 59.7264 68.88 63.0192 69.0216 63.6C69.1632 64.1808 68.5416 68.9376 68.5416 68.9376C68.5416 68.9376 71.5992 71.52 76.8 70.9344C82.0008 70.3488 83.6496 68.5344 83.6496 68.5344C83.6496 68.5344 83.1144 62.7072 83.1144 62.04C83.1094 61.5787 83.0797 61.1181 83.0256 60.66C83.0256 60.66 84.8496 62.5296 85.74 62.4408C86.6304 62.352 88.1856 58.704 87.7848 58.1208C87.384 57.5376 86.0064 55.1808 85.1616 53.4912C84.6523 52.4729 84.2285 51.414 83.8944 50.3256C83.8944 50.3256 82.4256 45.3432 81.9744 44.988C81.5232 44.6328 76.5264 44.688 75.636 44.4672C74.4603 44.2358 73.2718 44.0755 72.0768 43.9872C71.7792 43.9824 67.8192 44.916 66.84 46.4736Z" fill="#00A9F6" stroke="#263238" stroke-miterlimit="10"/>
<path d="M81.792 53.1336C81.768 51.8568 81.7632 50.8632 81.7632 50.8632" stroke="#263238" stroke-miterlimit="10"/>
<path d="M83.04 60.66C82.7004 59.9677 82.4038 59.2552 82.152 58.5264C81.9744 57.996 81.8808 56.1024 81.8304 54.3288" stroke="#263238" stroke-miterlimit="10"/>
<path d="M65.5032 55.392C65.0496 54.6 64.704 53.9808 64.6608 53.856" stroke="#263238" stroke-miterlimit="10"/>
<path d="M68.0424 59.7264C68.0424 59.7264 66.9048 57.8064 65.9496 56.1648" stroke="#263238" stroke-miterlimit="10"/>
<path d="M73.824 44.604C74.0072 46.1699 74.0225 47.7509 73.8696 49.32" stroke="#263238" stroke-miterlimit="10"/>
<path d="M76.8168 66.5568C77.352 66.6648 77.9256 66.7632 78.5376 66.8424" stroke="#263238" stroke-miterlimit="10"/>
<path d="M70.3536 63.6864C70.3536 63.6864 71.7936 65.2656 75.6336 66.2784" stroke="#263238" stroke-miterlimit="10"/>
<path d="M74.268 67.0656C75.917 67.8056 77.7097 68.1704 79.5168 68.1336" stroke="#263238" stroke-miterlimit="10"/>
<path d="M63.6384 39.2664C63.6384 39.2664 64.1712 41.7576 64.2168 42.2928C64.2624 42.828 64.3944 43.5384 65.0616 44.604C65.7288 45.6696 67.4616 48.0288 67.8192 48.1632C68.1768 48.2976 69.5544 47.94 69.5544 47.94C69.5544 47.94 71.0208 50.832 71.4216 50.7432C71.8224 50.6544 72.8448 47.3616 72.9792 46.0272C73.0639 45.3633 73.0784 44.6924 73.0224 44.0256L72.4008 41.8032C72.4008 41.8032 71.868 38.6832 71.868 38.4672C71.868 38.2512 72.1776 36.6432 70.4448 35.976C68.712 35.3088 66.5736 35.256 65.1504 36.9096C63.7272 38.5632 63.6384 39.2664 63.6384 39.2664Z" fill="white" stroke="#263238" stroke-miterlimit="10"/>
<path d="M68.4 36.4656C67.7761 37.4125 66.958 38.2158 66 38.8224C64.356 39.8904 65.1552 38.7336 65.1552 38.7336C65.1552 38.7336 63.9984 39.4536 63.0648 39.9336C62.1312 40.4136 62.4864 40.5576 62.1312 40.4136C61.776 40.2696 60.4512 36.4824 63.4248 34.6536C66.3984 32.8248 68.568 33.3072 68.568 33.3072C68.568 33.3072 67.2768 32.7288 68.4336 32.7288C69.5904 32.7288 70.08 33.36 70.08 33.36C70.08 33.36 70.7016 33.1824 70.968 33.5376C71.0846 33.6644 71.2304 33.7608 71.3928 33.8184C72.8328 34.428 73.3344 35.7912 73.6056 37.2144C73.7832 38.148 73.0272 40.3728 73.0272 40.3728L71.7792 41.04C71.4768 40.7645 71.232 40.4316 71.0592 40.0608C70.9455 39.7012 70.8857 39.3267 70.8816 38.9496C70.8816 38.9496 70.1256 39.9264 69.9912 39.216C69.8568 38.5056 69.5112 36.6816 69.5112 36.6816C69.5112 36.6816 69.6456 37.4016 69.2016 37.4016C68.7576 37.4016 68.4 36.4656 68.4 36.4656Z" fill="#263238" stroke="#263238" stroke-miterlimit="10"/>
<path d="M71.688 41.3568C71.688 41.3568 71.6448 39.8448 72.5352 39.3552C73.4256 38.8656 74.0472 39.4008 73.7784 40.824C73.5096 42.2472 71.9112 42.78 71.9112 42.78" fill="white"/>
<path d="M71.688 41.3568C71.688 41.3568 71.6448 39.8448 72.5352 39.3552C73.4256 38.8656 74.0472 39.4008 73.7784 40.824C73.5096 42.2472 71.9112 42.78 71.9112 42.78" stroke="#263238" stroke-miterlimit="10"/>
<path d="M69.5544 47.94L71.9112 45.5832L70.3536 49.1856L69.5544 47.94Z" fill="#263238" stroke="#263238" stroke-miterlimit="10"/>
<path d="M68.4648 45.5568C68.5147 45.644 68.5299 45.7469 68.5072 45.8448C68.4845 45.9427 68.4256 46.0285 68.3424 46.0848C68.1816 46.1496 67.9776 46.0176 67.8864 45.7896C67.7952 45.5616 67.8504 45.324 68.0088 45.2592C68.1672 45.1944 68.3712 45.3288 68.4648 45.5568Z" fill="#263238"/>
<path d="M69.0792 41.4384C69.1656 41.7216 69.1032 41.9904 68.9424 42.0408C68.7816 42.0912 68.5752 41.9016 68.4888 41.6208C68.4024 41.34 68.4648 41.0712 68.6256 41.0208C68.7864 40.9704 68.9928 41.1576 69.0792 41.4384Z" fill="#263238"/>
<path d="M66.1584 41.9328C66.2448 42.216 66.1824 42.4848 66.0192 42.5352C65.856 42.5856 65.6544 42.3984 65.568 42.1152C65.4816 41.832 65.5416 41.5656 65.7048 41.5152C65.868 41.4648 66.0696 41.652 66.1584 41.9328Z" fill="#263238"/>
<path d="M66.264 40.824C66.4613 40.9853 66.6196 41.1891 66.7273 41.4201C66.8349 41.6512 66.889 41.9035 66.8856 42.1584C66.8856 43.0488 66.7512 44.3832 66.7512 44.3832L68.3544 44.16" stroke="#263238" stroke-miterlimit="10"/>
<path d="M67.3296 40.2456C67.3296 40.2456 68.1312 38.8224 69.3768 39.0888" stroke="#263238" stroke-miterlimit="10"/>
<path d="M65.9064 40.512C65.9064 40.512 64.9296 40.2024 64.2624 40.6008" stroke="#263238" stroke-miterlimit="10"/>
<path d="M93.12 51.9432C93.12 51.9432 94.0992 51.588 94.4544 51.4632C94.8096 51.3384 95.1744 51.552 95.7888 51.2424C96.4032 50.9328 97.1232 50.3064 97.1688 50.7624C97.2144 51.2184 96.9888 51.384 96.6336 51.6072C96.2784 51.8304 95.7 52.2744 95.7 52.2744L95.5224 52.7184L92.8536 52.4976C92.8536 52.4976 92.904 52.08 93.12 51.9432Z" fill="white" stroke="#263238" stroke-miterlimit="10"/>
<path d="M98.484 53.0928C98.484 53.0928 99.7104 52.1208 99.888 51.6768C100.066 51.2328 99.7536 51.1968 99.444 51.3648C99.1344 51.5328 98.16 52.344 98.16 52.344L98.484 53.0928Z" fill="white" stroke="#263238" stroke-miterlimit="10"/>
<path d="M97.4808 53.304C97.4808 53.304 98.3928 53.4 98.484 53.0928C98.5752 52.7856 99.2952 50.8512 99.1776 50.6088C99.06 50.3664 98.832 50.388 98.58 50.7888C98.3104 51.3382 98.0779 51.9051 97.884 52.4856C97.884 52.4856 97.2744 52.6224 97.1208 53.04C96.9672 53.4576 97.4808 53.304 97.4808 53.304Z" fill="white" stroke="#263238" stroke-miterlimit="10"/>
<path d="M96.3288 53.544C96.3288 53.544 97.176 53.9016 97.3536 53.6328C97.5312 53.364 98.7768 51.7128 98.7312 51.4536C98.6856 51.1944 98.4648 51.144 98.1096 51.4536C97.6919 51.901 97.3054 52.3765 96.9528 52.8768C96.9528 52.8768 96.3288 52.8336 96.0624 53.1888C95.796 53.544 96.3288 53.544 96.3288 53.544Z" fill="white" stroke="#263238" stroke-miterlimit="10"/>
<path d="M83.9208 60.84C84.2722 59.4169 85.1663 58.1878 86.412 57.4152C88.5456 56.0352 91.44 53.544 91.44 53.544C91.44 53.544 92.4192 52.1664 93.12 51.9432C93.8208 51.72 96.144 52.3872 96.144 52.3872C96.144 52.3872 98.0136 50.52 98.064 50.9208C98.1144 51.3216 97.176 52.7448 96.7296 53.2776C96.2832 53.8104 94.9056 53.9448 94.596 53.9448C94.0453 53.9614 93.4957 54.0062 92.9496 54.0792C92.772 54.1224 89.8296 58.1256 88.5024 60.0792C87.1752 62.0328 86.5824 62.3904 85.7448 62.436C84.9072 62.4816 84.0096 61.812 83.7864 61.5024C83.5632 61.1928 83.9208 60.84 83.9208 60.84Z" fill="white" stroke="#263238" stroke-miterlimit="10"/>
<path d="M56.1048 53.4768L58.908 59.5584C58.9512 59.645 59.0213 59.7153 59.1079 59.7586C59.1945 59.8019 59.2928 59.8159 59.388 59.7984L61.7136 59.3688C61.7782 59.3563 61.8391 59.3297 61.8921 59.2907C61.9451 59.2518 61.9888 59.2016 62.0201 59.1437C62.0513 59.0859 62.0693 59.0218 62.0727 58.9561C62.0762 58.8904 62.065 58.8248 62.04 58.764L59.52 52.8288C59.4836 52.7411 59.4196 52.6677 59.3378 52.6197C59.2559 52.5716 59.1607 52.5515 59.0664 52.5624L56.4528 52.8528C56.3836 52.8611 56.3174 52.8857 56.2595 52.9245C56.2016 52.9633 56.1538 53.0153 56.1198 53.0762C56.0859 53.137 56.0668 53.205 56.0642 53.2747C56.0616 53.3443 56.0755 53.4136 56.1048 53.4768Z" fill="#263238" stroke="#263238" stroke-miterlimit="10"/>
<path d="M57.9456 58.6824C57.9456 58.6824 56.94 57.1416 56.94 56.796C56.94 56.4504 57.5256 55.632 57.8688 54.8928C58.212 54.1536 58.2648 53.6592 58.56 53.76C58.8552 53.8608 58.8 54.1536 58.7064 54.6456C58.526 55.2801 58.3129 55.905 58.068 56.5176L58.1664 57.1104C58.4041 56.6307 58.7017 56.1832 59.052 55.7784C59.496 55.3368 59.988 54.5976 60.3336 54.744C60.6792 54.8904 60.8256 54.984 60.5304 55.3368C60.1598 55.7807 59.8274 56.2552 59.5368 56.7552C59.2762 57.1819 59.0522 57.6299 58.8672 58.0944C59.1969 57.7786 59.5472 57.4851 59.916 57.216C60.396 56.8704 61.0728 56.3712 61.356 56.568C61.6392 56.7648 61.7016 56.9616 61.4064 57.2088C61.1112 57.456 60.8424 57.624 60.4464 57.9696C60.0333 58.3819 59.6454 58.8187 59.2848 59.2776C59.6366 59.0059 60.0285 58.7905 60.4464 58.6392C61.284 58.296 62.0496 58.3344 62.0808 58.5984C62.112 58.8624 61.2 59.1024 61.2 59.1024C60.5472 59.2512 60.516 59.4744 60.516 59.4744C60.516 59.4744 61.0584 60.5592 60.96 60.9144C60.96 60.9144 63.1488 60.5712 63.9864 60.3264C64.824 60.0816 66.132 60.5664 66.528 60.9624C67.3656 61.8 67.7592 63.0816 67.3176 64.1664C66.876 65.2512 66.8736 64.9056 63.3744 63.9264C59.8752 62.9472 59.9424 62.5968 59.088 61.1664C58.7784 60.6096 57.9456 58.6824 57.9456 58.6824Z" fill="white" stroke="#263238" stroke-miterlimit="10"/>
<path d="M60.9744 60.9048L60.9 61.8072" stroke="#263238" stroke-miterlimit="10"/>
<path d="M16 85.582H14.5352L14.5273 84.6836H15.7148C15.9284 84.6836 16.099 84.6602 16.2266 84.6133C16.3542 84.5638 16.4466 84.4922 16.5039 84.3984C16.5638 84.3047 16.5938 84.1875 16.5938 84.0469C16.5938 83.8854 16.5638 83.7552 16.5039 83.6562C16.444 83.5573 16.349 83.4857 16.2188 83.4414C16.0911 83.3945 15.9258 83.3711 15.7227 83.3711H15.0508V88H13.6797V82.3125H15.7227C16.0742 82.3125 16.388 82.3451 16.6641 82.4102C16.9401 82.4727 17.1745 82.569 17.3672 82.6992C17.5625 82.8294 17.7109 82.9935 17.8125 83.1914C17.9141 83.3867 17.9648 83.6172 17.9648 83.8828C17.9648 84.1146 17.9154 84.332 17.8164 84.5352C17.7174 84.7383 17.5521 84.9036 17.3203 85.0312C17.0911 85.1562 16.7773 85.2214 16.3789 85.2266L16 85.582ZM15.9453 88H14.2031L14.6719 86.9453H15.9453C16.1328 86.9453 16.2826 86.9167 16.3945 86.8594C16.5091 86.7995 16.5911 86.7214 16.6406 86.625C16.6927 86.526 16.7188 86.4167 16.7188 86.2969C16.7188 86.151 16.694 86.0247 16.6445 85.918C16.5977 85.8112 16.5221 85.7292 16.418 85.6719C16.3138 85.612 16.1745 85.582 16 85.582H14.8477L14.8555 84.6836H16.2344L16.5547 85.043C16.9349 85.0273 17.2357 85.0807 17.457 85.2031C17.681 85.3255 17.8411 85.487 17.9375 85.6875C18.0339 85.888 18.082 86.0977 18.082 86.3164C18.082 86.6888 18.0013 87 17.8398 87.25C17.681 87.5 17.4427 87.6875 17.125 87.8125C16.8073 87.9375 16.4141 88 15.9453 88ZM21.2539 83.5078L19.8672 88H18.3945L20.4844 82.3125H21.418L21.2539 83.5078ZM22.4023 88L21.0117 83.5078L20.832 82.3125H21.7773L23.8789 88H22.4023ZM22.3477 85.8789V86.9375H19.4297V85.8789H22.3477ZM29.0469 82.3125V88H27.6797L25.668 84.4609V88H24.2969V82.3125H25.668L27.6797 85.8516V82.3125H29.0469ZM34.6641 82.3125V88H33.2969L31.2852 84.4609V88H29.9141V82.3125H31.2852L33.2969 85.8516V82.3125H34.6641ZM39.4453 86.9453V88H36.4141V86.9453H39.4453ZM36.9023 82.3125V88H35.5312V82.3125H36.9023ZM39.0547 84.5703V85.5898H36.4141V84.5703H39.0547ZM39.457 82.3125V83.3711H36.4141V82.3125H39.457ZM41.8555 88H40.5938L40.6016 86.9453H41.8555C42.1159 86.9453 42.3359 86.8828 42.5156 86.7578C42.6979 86.6328 42.8359 86.4466 42.9297 86.1992C43.026 85.9492 43.0742 85.6419 43.0742 85.2773V85.0312C43.0742 84.7578 43.0469 84.5182 42.9922 84.3125C42.9401 84.1042 42.862 83.931 42.7578 83.793C42.6536 83.6523 42.5234 83.5469 42.3672 83.4766C42.2135 83.4062 42.0365 83.3711 41.8359 83.3711H40.5703V82.3125H41.8359C42.2214 82.3125 42.5742 82.3789 42.8945 82.5117C43.2174 82.6419 43.4961 82.8294 43.7305 83.0742C43.9674 83.3164 44.1497 83.6042 44.2773 83.9375C44.4076 84.2682 44.4727 84.6354 44.4727 85.0391V85.2773C44.4727 85.6784 44.4076 86.0456 44.2773 86.3789C44.1497 86.7122 43.9688 87 43.7344 87.2422C43.5 87.4844 43.2227 87.6719 42.9023 87.8047C42.5846 87.9349 42.2357 88 41.8555 88ZM41.3789 82.3125V88H40.0078V82.3125H41.3789Z" fill="#00A9F6"/>
</svg>
