<svg width="120" height="120" viewBox="0 0 120 120" fill="none" xmlns="http://www.w3.org/2000/svg">
<path d="M111.48 27.2328C111.099 26.5928 110.699 25.9608 110.28 25.3368C104.719 17.0928 95.1456 11.4552 85.728 8.90639C81.5961 7.80726 77.3513 7.18797 73.0776 7.06079C45.0888 6.10079 33.9408 28.1808 24.6912 33.8616C15.4416 39.5424 1.20002 49.2792 2.16002 69.6768C3.12002 90.0744 17.8128 109.277 46.2744 110.477C74.736 111.677 76.6344 98.856 92.5248 94.1112C103.042 90.972 110.525 80.3688 114.173 70.5696C119.16 57.2112 118.925 39.8664 111.48 27.2328Z" fill="#00A9F6"/>
<path opacity="0.7" d="M111.48 27.2328C111.099 26.5928 110.699 25.9608 110.28 25.3368C104.719 17.0928 95.1456 11.4552 85.728 8.90639C81.5961 7.80726 77.3513 7.18797 73.0776 7.06079C45.0888 6.10079 33.9408 28.1808 24.6912 33.8616C15.4416 39.5424 1.20002 49.2792 2.16002 69.6768C3.12002 90.0744 17.8128 109.277 46.2744 110.477C74.736 111.677 76.6344 98.856 92.5248 94.1112C103.042 90.972 110.525 80.3688 114.173 70.5696C119.16 57.2112 118.925 39.8664 111.48 27.2328Z" fill="white"/>
<path d="M15.552 109.154H117.595" stroke="#263238" stroke-miterlimit="10"/>
<path d="M7.48315 109.154H13.812" stroke="#263238" stroke-miterlimit="10"/>
<path d="M51.8736 40.08V32.52H51.1896V22.8456C51.1899 22.0622 51.0358 21.2864 50.7363 20.5625C50.4367 19.8387 49.9974 19.1809 49.4436 18.6269C48.8897 18.0728 48.2322 17.6333 47.5084 17.3334C46.7847 17.0336 46.009 16.8792 45.2256 16.8792H13.1808C11.5984 16.8792 10.0808 17.5078 8.96187 18.6267C7.84296 19.7456 7.21436 21.2632 7.21436 22.8456V99.0288C7.21436 100.611 7.84296 102.129 8.96187 103.248C10.0808 104.367 11.5984 104.995 13.1808 104.995H45.2256C46.009 104.995 46.7847 104.841 47.5084 104.541C48.2322 104.241 48.8897 103.802 49.4436 103.248C49.9974 102.693 50.4367 102.036 50.7363 101.312C51.0358 100.588 51.1899 99.8122 51.1896 99.0288V46.524H51.8736V42.0576H51.1896V40.08H51.8736Z" fill="#707070" stroke="#263238" stroke-linejoin="round"/>
<path d="M44.1791 104.172H14.2247C12.5488 104.172 10.9414 103.506 9.75637 102.321C8.57129 101.136 7.90552 99.5287 7.90552 97.8528V24.0216C7.90552 20.5296 9.69592 17.7 14.2247 17.7H44.1791C48.3335 17.6448 50.5007 20.5296 50.5007 24.0216V97.8528C50.5007 98.6828 50.3372 99.5048 50.0195 100.272C49.7017 101.038 49.2361 101.735 48.649 102.322C48.062 102.909 47.3651 103.374 46.5981 103.692C45.8311 104.009 45.0092 104.172 44.1791 104.172V104.172Z" fill="#263238" stroke="#263238" stroke-linejoin="round"/>
<path d="M31.5215 18.672L31.5095 18.7176C31.1591 20.0232 30.3528 20.8776 29.46 20.8776H28.9464C28.0536 20.8776 27.2471 20.0328 26.8967 18.7176V18.672L14.3975 18.6288C13.7055 18.6266 13.0198 18.761 12.3797 19.0242C11.7397 19.2874 11.1578 19.6744 10.6676 20.1629C10.1773 20.6513 9.78827 21.2318 9.5227 21.8708C9.25712 22.5099 9.12026 23.1951 9.11995 23.8872L9.10315 97.0728C9.10315 100.483 11.7719 103.248 15.0671 103.248H43.3488C46.644 103.248 49.3151 100.483 49.3151 97.0728V23.3616C49.3152 22.1613 48.8421 21.0094 47.9983 20.1557C47.1545 19.3021 46.0082 18.8155 44.8079 18.8016L31.5215 18.672Z" fill="white" stroke="#263238" stroke-miterlimit="10"/>
<path d="M49.3104 24.6912V23.3616C49.3105 22.1613 48.8373 21.0094 47.9935 20.1557C47.1497 19.3021 46.0034 18.8155 44.8032 18.8016L31.5216 18.6648L31.5096 18.7104C31.1592 20.016 30.3528 20.8704 29.46 20.8704H28.9464C28.0536 20.8704 27.2472 20.0256 26.8968 18.7104V18.6648L14.3976 18.6216C13.7049 18.6194 13.0186 18.754 12.3781 19.0177C11.7376 19.2814 11.1554 19.669 10.6651 20.1582C10.1747 20.6474 9.78582 21.2287 9.52067 21.8686C9.25552 22.5085 9.11936 23.1945 9.12 23.8872V24.6912H49.3104Z" fill="#DBDBDB" stroke="#263238" stroke-miterlimit="10"/>
<path d="M29.6399 18.528C29.6399 18.4168 29.6069 18.3082 29.5451 18.2158C29.4833 18.1234 29.3954 18.0514 29.2927 18.0089C29.1899 17.9665 29.0769 17.9555 28.9679 17.9774C28.8589 17.9993 28.7588 18.053 28.6804 18.1318C28.6019 18.2106 28.5486 18.3108 28.5272 18.4199C28.5058 18.529 28.5173 18.642 28.5602 18.7446C28.603 18.8472 28.6754 18.9347 28.7681 18.9961C28.8607 19.0576 28.9695 19.0901 29.0807 19.0896C29.1544 19.0896 29.2273 19.0751 29.2953 19.0468C29.3633 19.0186 29.425 18.9772 29.477 18.925C29.5289 18.8728 29.5701 18.8109 29.598 18.7428C29.626 18.6746 29.6402 18.6017 29.6399 18.528V18.528Z" fill="#707070"/>
<path d="M13.056 19.9536C13.056 20.5224 12.42 20.7264 12.4176 21.1536V21.1824H13.0344V21.372H12.2112V21.216C12.2112 20.6088 12.8472 20.496 12.8472 19.9632C12.8472 19.7688 12.7824 19.668 12.6264 19.668C12.4704 19.668 12.4056 19.7784 12.4056 19.944V20.1096H12.2112V19.9584C12.2112 19.6704 12.3408 19.4784 12.6312 19.4784C12.9216 19.4784 13.056 19.68 13.056 19.9536Z" fill="#263238"/>
<path d="M14.0856 19.9512V19.9992C14.0937 20.0814 14.0746 20.1639 14.0313 20.2341C13.9879 20.3044 13.9227 20.3585 13.8456 20.388C13.9232 20.4169 13.9889 20.4708 14.0323 20.5412C14.0758 20.6117 14.0945 20.6946 14.0856 20.7768V20.9208C14.0856 21.2088 13.9512 21.4008 13.6608 21.4008C13.3704 21.4008 13.2384 21.2136 13.2384 20.9208V20.7936H13.44V20.9352C13.44 21.1032 13.5096 21.2064 13.6608 21.2064C13.812 21.2064 13.8792 21.1056 13.8792 20.916V20.772C13.8792 20.5848 13.8024 20.496 13.6392 20.4912H13.5264V20.304H13.6488C13.6815 20.3044 13.7138 20.2976 13.7437 20.2843C13.7735 20.2709 13.8 20.2512 13.8215 20.2265C13.8429 20.2019 13.8588 20.1729 13.8679 20.1415C13.8771 20.1101 13.8793 20.0771 13.8744 20.0448V19.9608C13.8744 19.7664 13.8072 19.668 13.656 19.668C13.5048 19.668 13.4352 19.7712 13.4352 19.9416V20.0376H13.2384V19.9512C13.2384 19.6656 13.3728 19.4712 13.6608 19.4712C13.9488 19.4712 14.0856 19.6656 14.0856 19.9512Z" fill="#263238"/>
<path d="M14.4912 20.0952V20.3544H14.2896V20.0952H14.4912ZM14.4912 21.1176V21.3768H14.2896V21.12L14.4912 21.1176Z" fill="#263238"/>
<path d="M14.9135 20.2632C14.9414 20.2138 14.9823 20.1731 15.0319 20.1456C15.0815 20.1181 15.1377 20.1048 15.1943 20.1072C15.4343 20.1072 15.5423 20.2848 15.5423 20.5536V20.9208C15.5423 21.2088 15.4055 21.4008 15.1199 21.4008C14.8343 21.4008 14.6975 21.2136 14.6975 20.9208V20.796H14.8919V20.9352C14.8919 21.1032 14.9639 21.2064 15.1127 21.2064C15.2615 21.2064 15.3335 21.1032 15.3335 20.9352V20.5704C15.3335 20.4 15.2639 20.2992 15.1127 20.2992C15.0854 20.2979 15.0582 20.3022 15.0326 20.3117C15.007 20.3213 14.9837 20.3359 14.9639 20.3548C14.9442 20.3736 14.9284 20.3963 14.9177 20.4214C14.907 20.4465 14.9015 20.4735 14.9015 20.5008V20.5416H14.7047L14.7551 19.4976H15.4967V19.68H14.9447L14.9135 20.2632Z" fill="#263238"/>
<path d="M16.5888 19.9488V19.9848H16.392V19.9368C16.392 19.7664 16.3224 19.668 16.1688 19.668C16.0152 19.668 15.9288 19.7688 15.9288 19.9704V20.4C15.9505 20.3382 15.9918 20.2851 16.0463 20.2487C16.1008 20.2124 16.1657 20.1947 16.2312 20.1984C16.4712 20.1984 16.5816 20.3736 16.5816 20.6448V20.928C16.5816 21.216 16.44 21.408 16.152 21.408C15.864 21.408 15.72 21.2208 15.72 20.928V19.968C15.72 19.6704 15.8544 19.488 16.152 19.488C16.4496 19.488 16.5888 19.6608 16.5888 19.9488ZM15.9408 20.652V20.9352C15.9408 21.1032 16.0104 21.2064 16.164 21.2064C16.3176 21.2064 16.3872 21.1032 16.3872 20.9352V20.652C16.3872 20.484 16.3152 20.3808 16.164 20.3808C16.0128 20.3808 15.9408 20.484 15.9408 20.652V20.652Z" fill="#263238"/>
<path d="M37.1088 20.0328H36.5784V21.36H37.1088V20.0328Z" fill="#263238"/>
<path d="M37.8168 19.7664H37.2864V21.36H37.8168V19.7664Z" fill="#263238"/>
<path d="M38.5248 19.5768H37.9944V21.3576H38.5248V19.5768Z" fill="#263238"/>
<path d="M39.2304 23.248H38.7V25.3576H39.2304V23.248Z" fill="#263238"/>
<path d="M45.7992 21.3216H42.6144V19.3752H45.7992V21.3216ZM42.792 21.1464H45.6216V19.5528H42.792V21.1464Z" fill="#263238"/>
<path d="M44.7383 19.7448H43.0583V20.952H44.7383V19.7448Z" fill="#263238"/>
<path d="M46.0895 20.1192H45.6887V20.5776H46.0895V20.1192Z" fill="#263238"/>
<path d="M29.1792 43.68C25.7272 43.6795 22.3525 44.7028 19.482 46.6203C16.6116 48.5379 14.3742 51.2636 13.053 54.4528C11.7317 57.642 11.3859 61.1514 12.0592 64.5371C12.7326 67.9228 14.3949 71.0329 16.8358 73.4738C19.2768 75.9148 22.3868 77.577 25.7725 78.2504C29.1583 78.9237 32.6676 78.5779 35.8568 77.2566C39.046 75.9354 41.7717 73.698 43.6893 70.8276C45.6068 67.9571 46.6301 64.5825 46.6296 61.1304C46.6239 56.504 44.7835 52.0688 41.5122 48.7974C38.2408 45.5261 33.8056 43.6857 29.1792 43.68V43.68ZM14.1264 61.14C14.1226 58.2158 14.9711 55.3539 16.5682 52.9043C18.1653 50.4547 20.4417 48.5237 23.119 47.3476C25.7962 46.1714 28.7583 45.801 31.6427 46.2818C34.5271 46.7625 37.2089 48.0735 39.36 50.0544L18.0936 71.3112C15.5409 68.5393 14.1247 64.9083 14.1264 61.14V61.14ZM29.1792 76.1928C25.7932 76.1948 22.5065 75.0493 19.8552 72.9432L40.9752 51.8232C42.7303 54.0402 43.825 56.7069 44.1336 59.5176C44.4422 62.3283 43.9523 65.1691 42.72 67.714C41.4878 70.2589 39.5631 72.405 37.1668 73.906C34.7705 75.4069 31.9996 76.202 29.172 76.2L29.1792 76.1928Z" fill="#00A9F6"/>
<path d="M68.5321 68.9352C68.5321 68.9352 66.6265 79.524 66.2089 81.3144C65.7913 83.1048 64.7689 92.232 64.7689 94.5C64.7689 96.768 64.9465 103.62 64.9465 103.62C64.9465 103.62 64.1713 103.978 64.1713 104.275C64.1713 104.573 64.7689 106.483 64.7689 106.483L68.2873 107.796C68.2873 107.796 69.0073 106.116 69.0625 105.528C69.1177 104.94 68.6449 104.693 68.6449 103.678C68.6449 102.662 70.4353 90.852 70.9729 88.884C71.5105 86.916 73.0609 81.0096 73.3585 80.472C73.6561 79.9344 75.1489 75.9984 75.1489 75.9984L75.9841 76.416C75.9841 76.416 76.5193 88.824 76.8193 89.5992C77.1193 90.3744 81.1201 103.008 81.1201 103.008C81.1201 103.008 80.4649 103.306 80.8801 104.023C81.2953 104.741 82.0129 106.349 82.0129 106.349C82.0129 106.349 82.6705 105.454 83.4529 105.276C84.2353 105.098 85.5409 105.871 85.5409 105.871C85.5409 105.871 86.3161 104.081 86.1361 103.248C85.9561 102.415 85.1761 100.98 85.1233 100.562C85.0705 100.145 83.4433 88.116 83.4433 88.116C83.4433 88.116 83.8609 71.292 83.8609 70.1592C83.8385 69.3863 83.6977 68.6214 83.4433 67.8912C80.9404 68.75 78.3293 69.2525 75.6865 69.384C71.4505 69.5616 69.1249 67.8336 69.1249 67.8336L68.5321 68.9352Z" fill="#263238" stroke="#263238" stroke-miterlimit="10"/>
<path d="M64.7785 106.49C64.7785 106.49 62.8081 108.278 62.4505 108.518C62.0929 108.758 59.5873 109.718 59.6473 110.198C59.7073 110.678 60.3673 110.974 60.3673 110.974H68.4817C68.4817 110.974 68.5393 110.734 68.6593 109.601C68.7167 108.866 68.5939 108.129 68.3017 107.453L64.7785 106.49Z" fill="white" stroke="#263238" stroke-miterlimit="10"/>
<path d="M68.5992 110.102L59.6904 110.342C59.8438 110.614 60.079 110.83 60.3624 110.959H68.4768C68.4768 110.959 68.5176 110.798 68.5992 110.102Z" fill="white" stroke="#263238" stroke-miterlimit="10"/>
<path d="M82.0176 106.349C82.0176 106.349 81.9576 107.839 81.9576 108.617C81.9576 109.394 81.84 110.297 81.8976 110.465C81.9552 110.633 82.0776 110.945 82.0776 110.945H86.7912C86.7912 110.945 86.9688 110.465 86.7312 109.572C86.4936 108.679 86.0736 108.202 85.956 107.412C85.8648 106.883 85.725 106.364 85.5384 105.862C85.5384 105.862 83.2104 104.023 82.0176 106.349Z" fill="white" stroke="#263238" stroke-miterlimit="10"/>
<path d="M86.8537 110.378C85.0609 110.378 82.8289 110.321 81.8809 110.297C81.8805 110.353 81.8862 110.41 81.8977 110.465C81.9577 110.645 82.0777 110.945 82.0777 110.945H86.7913C86.8432 110.761 86.8643 110.569 86.8537 110.378V110.378Z" fill="white" stroke="#263238" stroke-miterlimit="10"/>
<path d="M66.84 46.4736C66.84 46.4736 61.7712 51.2328 61.992 51.6768C62.2128 52.1208 63.6 55.7232 63.6 55.7232C63.6 55.7232 63.9984 58.1232 63.7776 59.6376C63.6426 60.5953 63.5976 61.5635 63.6432 62.5296C64.109 63.1168 64.6784 63.6138 65.3232 63.996C66.3024 64.5312 67.0584 65.4648 67.6824 63.9528C68.3064 62.4408 68.0376 59.7264 68.0376 59.7264C68.0376 59.7264 68.88 63.0192 69.0216 63.6C69.1632 64.1808 68.5416 68.9376 68.5416 68.9376C68.5416 68.9376 71.5992 71.52 76.8 70.9344C82.0008 70.3488 83.6496 68.5344 83.6496 68.5344C83.6496 68.5344 83.1144 62.7072 83.1144 62.04C83.1094 61.5787 83.0797 61.1181 83.0256 60.66C83.0256 60.66 84.8496 62.5296 85.74 62.4408C86.6304 62.352 88.1856 58.704 87.7848 58.1208C87.384 57.5376 86.0064 55.1808 85.1616 53.4912C84.6523 52.4729 84.2285 51.414 83.8944 50.3256C83.8944 50.3256 82.4256 45.3432 81.9744 44.988C81.5232 44.6328 76.5264 44.688 75.636 44.4672C74.4603 44.2358 73.2718 44.0755 72.0768 43.9872C71.7792 43.9824 67.8192 44.916 66.84 46.4736Z" fill="#00A9F6" stroke="#263238" stroke-miterlimit="10"/>
<path d="M81.792 53.1336C81.768 51.8568 81.7632 50.8632 81.7632 50.8632" stroke="#263238" stroke-miterlimit="10"/>
<path d="M83.04 60.66C82.7005 59.9677 82.4039 59.2552 82.152 58.5264C81.9744 57.996 81.8808 56.1024 81.8304 54.3288" stroke="#263238" stroke-miterlimit="10"/>
<path d="M65.5033 55.392C65.0497 54.6 64.7041 53.9808 64.6609 53.856" stroke="#263238" stroke-miterlimit="10"/>
<path d="M68.0424 59.7264C68.0424 59.7264 66.9048 57.8064 65.9496 56.1648" stroke="#263238" stroke-miterlimit="10"/>
<path d="M73.8241 44.604C74.0073 46.1699 74.0226 47.7509 73.8697 49.32" stroke="#263238" stroke-miterlimit="10"/>
<path d="M76.8169 66.5568C77.3521 66.6648 77.9257 66.7632 78.5377 66.8424" stroke="#263238" stroke-miterlimit="10"/>
<path d="M70.3536 63.6864C70.3536 63.6864 71.7936 65.2656 75.6336 66.2784" stroke="#263238" stroke-miterlimit="10"/>
<path d="M74.2681 67.0656C75.9171 67.8056 77.7098 68.1704 79.5169 68.1336" stroke="#263238" stroke-miterlimit="10"/>
<path d="M63.6384 39.2664C63.6384 39.2664 64.1712 41.7576 64.2168 42.2928C64.2624 42.828 64.3944 43.5384 65.0616 44.604C65.7288 45.6696 67.4616 48.0288 67.8192 48.1632C68.1768 48.2976 69.5544 47.94 69.5544 47.94C69.5544 47.94 71.0208 50.832 71.4216 50.7432C71.8224 50.6544 72.8448 47.3616 72.9792 46.0272C73.064 45.3633 73.0785 44.6924 73.0224 44.0256L72.4008 41.8032C72.4008 41.8032 71.868 38.6832 71.868 38.4672C71.868 38.2512 72.1776 36.6432 70.4448 35.976C68.712 35.3088 66.5736 35.256 65.1504 36.9096C63.7272 38.5632 63.6384 39.2664 63.6384 39.2664Z" fill="white" stroke="#263238" stroke-miterlimit="10"/>
<path d="M68.4 36.4656C67.7761 37.4125 66.958 38.2158 66 38.8224C64.356 39.8904 65.1552 38.7336 65.1552 38.7336C65.1552 38.7336 63.9984 39.4536 63.0648 39.9336C62.1312 40.4136 62.4864 40.5576 62.1312 40.4136C61.776 40.2696 60.4512 36.4824 63.4248 34.6536C66.3984 32.8248 68.568 33.3072 68.568 33.3072C68.568 33.3072 67.2768 32.7288 68.4336 32.7288C69.5904 32.7288 70.08 33.36 70.08 33.36C70.08 33.36 70.7016 33.1824 70.968 33.5376C71.0846 33.6644 71.2304 33.7608 71.3928 33.8184C72.8328 34.428 73.3344 35.7912 73.6056 37.2144C73.7832 38.148 73.0272 40.3728 73.0272 40.3728L71.7792 41.04C71.4768 40.7645 71.232 40.4316 71.0592 40.0608C70.9455 39.7012 70.8857 39.3267 70.8816 38.9496C70.8816 38.9496 70.1256 39.9264 69.9912 39.216C69.8568 38.5056 69.5112 36.6816 69.5112 36.6816C69.5112 36.6816 69.6456 37.4016 69.2016 37.4016C68.7576 37.4016 68.4 36.4656 68.4 36.4656Z" fill="#263238" stroke="#263238" stroke-miterlimit="10"/>
<path d="M71.6881 41.3568C71.6881 41.3568 71.6449 39.8448 72.5353 39.3552C73.4257 38.8656 74.0473 39.4008 73.7785 40.824C73.5097 42.2472 71.9113 42.78 71.9113 42.78" fill="white"/>
<path d="M71.6881 41.3568C71.6881 41.3568 71.6449 39.8448 72.5353 39.3552C73.4257 38.8656 74.0473 39.4008 73.7785 40.824C73.5097 42.2472 71.9113 42.78 71.9113 42.78" stroke="#263238" stroke-miterlimit="10"/>
<path d="M69.5544 47.94L71.9112 45.5832L70.3536 49.1856L69.5544 47.94Z" fill="#263238" stroke="#263238" stroke-miterlimit="10"/>
<path d="M68.4648 45.5568C68.5148 45.644 68.5299 45.7469 68.5072 45.8448C68.4845 45.9427 68.4257 46.0285 68.3424 46.0848C68.1816 46.1496 67.9776 46.0176 67.8864 45.7896C67.7952 45.5616 67.8504 45.324 68.0088 45.2592C68.1672 45.1944 68.3712 45.3288 68.4648 45.5568Z" fill="#263238"/>
<path d="M69.0792 41.4384C69.1656 41.7216 69.1032 41.9904 68.9424 42.0408C68.7816 42.0912 68.5752 41.9016 68.4888 41.6208C68.4024 41.34 68.4648 41.0712 68.6256 41.0208C68.7864 40.9704 68.9928 41.1576 69.0792 41.4384Z" fill="#263238"/>
<path d="M66.1584 41.9328C66.2448 42.216 66.1824 42.4848 66.0192 42.5352C65.856 42.5856 65.6544 42.3984 65.568 42.1152C65.4816 41.832 65.5416 41.5656 65.7048 41.5152C65.868 41.4648 66.0696 41.652 66.1584 41.9328Z" fill="#263238"/>
<path d="M66.264 40.824C66.4613 40.9853 66.6197 41.1891 66.7273 41.4201C66.8349 41.6512 66.8891 41.9035 66.8856 42.1584C66.8856 43.0488 66.7512 44.3832 66.7512 44.3832L68.3544 44.16" stroke="#263238" stroke-miterlimit="10"/>
<path d="M67.3296 40.2456C67.3296 40.2456 68.1312 38.8224 69.3768 39.0888" stroke="#263238" stroke-miterlimit="10"/>
<path d="M65.9064 40.512C65.9064 40.512 64.9297 40.2024 64.2625 40.6008" stroke="#263238" stroke-miterlimit="10"/>
<path d="M93.12 51.9432C93.12 51.9432 94.0992 51.588 94.4544 51.4632C94.8096 51.3384 95.1744 51.552 95.7888 51.2424C96.4032 50.9328 97.1232 50.3064 97.1688 50.7624C97.2144 51.2184 96.9888 51.384 96.6336 51.6072C96.2784 51.8304 95.7 52.2744 95.7 52.2744L95.5224 52.7184L92.8536 52.4976C92.8536 52.4976 92.904 52.08 93.12 51.9432Z" fill="white" stroke="#263238" stroke-miterlimit="10"/>
<path d="M98.484 53.0928C98.484 53.0928 99.7104 52.1208 99.888 51.6768C100.066 51.2328 99.7536 51.1968 99.444 51.3648C99.1344 51.5328 98.16 52.344 98.16 52.344L98.484 53.0928Z" fill="white" stroke="#263238" stroke-miterlimit="10"/>
<path d="M97.4808 53.304C97.4808 53.304 98.3928 53.4 98.484 53.0928C98.5752 52.7856 99.2952 50.8512 99.1776 50.6088C99.06 50.3664 98.832 50.388 98.58 50.7888C98.3105 51.3382 98.0779 51.9051 97.884 52.4856C97.884 52.4856 97.2744 52.6224 97.1208 53.04C96.9672 53.4576 97.4808 53.304 97.4808 53.304Z" fill="white" stroke="#263238" stroke-miterlimit="10"/>
<path d="M96.3288 53.544C96.3288 53.544 97.176 53.9016 97.3536 53.6328C97.5312 53.364 98.7768 51.7128 98.7312 51.4536C98.6856 51.1944 98.4648 51.144 98.1096 51.4536C97.6919 51.901 97.3054 52.3765 96.9528 52.8768C96.9528 52.8768 96.3288 52.8336 96.0624 53.1888C95.796 53.544 96.3288 53.544 96.3288 53.544Z" fill="white" stroke="#263238" stroke-miterlimit="10"/>
<path d="M83.9209 60.84C84.2723 59.4169 85.1664 58.1878 86.4121 57.4152C88.5457 56.0352 91.4401 53.544 91.4401 53.544C91.4401 53.544 92.4193 52.1664 93.1201 51.9432C93.8209 51.72 96.1441 52.3872 96.1441 52.3872C96.1441 52.3872 98.0137 50.52 98.0641 50.9208C98.1145 51.3216 97.1761 52.7448 96.7297 53.2776C96.2833 53.8104 94.9057 53.9448 94.5961 53.9448C94.0453 53.9614 93.4958 54.0062 92.9497 54.0792C92.7721 54.1224 89.8297 58.1256 88.5025 60.0792C87.1753 62.0328 86.5825 62.3904 85.7449 62.436C84.9073 62.4816 84.0097 61.812 83.7865 61.5024C83.5633 61.1928 83.9209 60.84 83.9209 60.84Z" fill="white" stroke="#263238" stroke-miterlimit="10"/>
<path d="M56.1048 53.4768L58.908 59.5584C58.9512 59.645 59.0214 59.7153 59.108 59.7586C59.1945 59.8019 59.2928 59.8159 59.388 59.7984L61.7136 59.3688C61.7782 59.3563 61.8392 59.3297 61.8922 59.2907C61.9452 59.2518 61.9889 59.2016 62.0201 59.1437C62.0514 59.0859 62.0694 59.0218 62.0728 58.9561C62.0762 58.8904 62.0651 58.8248 62.04 58.764L59.52 52.8288C59.4836 52.7411 59.4197 52.6677 59.3378 52.6197C59.256 52.5716 59.1607 52.5515 59.0664 52.5624L56.4528 52.8528C56.3837 52.8611 56.3174 52.8857 56.2596 52.9245C56.2017 52.9633 56.1538 53.0153 56.1199 53.0762C56.0859 53.137 56.0669 53.205 56.0643 53.2747C56.0617 53.3443 56.0756 53.4136 56.1048 53.4768Z" fill="#263238" stroke="#263238" stroke-miterlimit="10"/>
<path d="M57.9457 58.6824C57.9457 58.6824 56.9401 57.1416 56.9401 56.796C56.9401 56.4504 57.5257 55.632 57.8689 54.8928C58.2121 54.1536 58.2649 53.6592 58.5601 53.76C58.8553 53.8608 58.8001 54.1536 58.7065 54.6456C58.526 55.2801 58.3129 55.905 58.0681 56.5176L58.1665 57.1104C58.4042 56.6307 58.7018 56.1832 59.0521 55.7784C59.4961 55.3368 59.9881 54.5976 60.3337 54.744C60.6793 54.8904 60.8257 54.984 60.5305 55.3368C60.1598 55.7807 59.8275 56.2552 59.5369 56.7552C59.2762 57.1819 59.0522 57.6299 58.8673 58.0944C59.1969 57.7786 59.5473 57.4851 59.9161 57.216C60.3961 56.8704 61.0729 56.3712 61.3561 56.568C61.6393 56.7648 61.7017 56.9616 61.4065 57.2088C61.1113 57.456 60.8425 57.624 60.4465 57.9696C60.0334 58.3819 59.6455 58.8187 59.2849 59.2776C59.6366 59.0059 60.0285 58.7905 60.4465 58.6392C61.2841 58.296 62.0497 58.3344 62.0809 58.5984C62.1121 58.8624 61.2001 59.1024 61.2001 59.1024C60.5473 59.2512 60.5161 59.4744 60.5161 59.4744C60.5161 59.4744 61.0585 60.5592 60.9601 60.9144C60.9601 60.9144 63.1489 60.5712 63.9865 60.3264C64.8241 60.0816 66.1321 60.5664 66.5281 60.9624C67.3657 61.8 67.7593 63.0816 67.3177 64.1664C66.8761 65.2512 66.8737 64.9056 63.3745 63.9264C59.8753 62.9472 59.9425 62.5968 59.0881 61.1664C58.7785 60.6096 57.9457 58.6824 57.9457 58.6824Z" fill="white" stroke="#263238" stroke-miterlimit="10"/>
<path d="M60.9744 60.9048L60.9 61.8072" stroke="#263238" stroke-miterlimit="10"/>
<path d="M14.8555 85.582H13.3906L13.3828 84.6836H14.5703C14.7839 84.6836 14.9544 84.6602 15.082 84.6133C15.2096 84.5638 15.3021 84.4922 15.3594 84.3984C15.4193 84.3047 15.4492 84.1875 15.4492 84.0469C15.4492 83.8854 15.4193 83.7552 15.3594 83.6562C15.2995 83.5573 15.2044 83.4857 15.0742 83.4414C14.9466 83.3945 14.7812 83.3711 14.5781 83.3711H13.9062V88H12.5352V82.3125H14.5781C14.9297 82.3125 15.2435 82.3451 15.5195 82.4102C15.7956 82.4727 16.0299 82.569 16.2227 82.6992C16.418 82.8294 16.5664 82.9935 16.668 83.1914C16.7695 83.3867 16.8203 83.6172 16.8203 83.8828C16.8203 84.1146 16.7708 84.332 16.6719 84.5352C16.5729 84.7383 16.4076 84.9036 16.1758 85.0312C15.9466 85.1562 15.6328 85.2214 15.2344 85.2266L14.8555 85.582ZM14.8008 88H13.0586L13.5273 86.9453H14.8008C14.9883 86.9453 15.138 86.9167 15.25 86.8594C15.3646 86.7995 15.4466 86.7214 15.4961 86.625C15.5482 86.526 15.5742 86.4167 15.5742 86.2969C15.5742 86.151 15.5495 86.0247 15.5 85.918C15.4531 85.8112 15.3776 85.7292 15.2734 85.6719C15.1693 85.612 15.0299 85.582 14.8555 85.582H13.7031L13.7109 84.6836H15.0898L15.4102 85.043C15.7904 85.0273 16.0911 85.0807 16.3125 85.2031C16.5365 85.3255 16.6966 85.487 16.793 85.6875C16.8893 85.888 16.9375 86.0977 16.9375 86.3164C16.9375 86.6888 16.8568 87 16.6953 87.25C16.5365 87.5 16.2982 87.6875 15.9805 87.8125C15.6628 87.9375 15.2695 88 14.8008 88ZM21.457 86.9453V88H18.582V86.9453H21.457ZM19.0703 82.3125V88H17.6992V82.3125H19.0703ZM26.5977 85.043V85.2734C26.5977 85.7083 26.5365 86.099 26.4141 86.4453C26.2943 86.7891 26.1237 87.0833 25.9023 87.3281C25.681 87.5703 25.4193 87.7565 25.1172 87.8867C24.8151 88.0143 24.4818 88.0781 24.1172 88.0781C23.75 88.0781 23.4141 88.0143 23.1094 87.8867C22.8073 87.7565 22.5443 87.5703 22.3203 87.3281C22.099 87.0833 21.9271 86.7891 21.8047 86.4453C21.6849 86.099 21.625 85.7083 21.625 85.2734V85.043C21.625 84.6081 21.6849 84.2174 21.8047 83.8711C21.9271 83.5247 22.0977 83.2305 22.3164 82.9883C22.5378 82.7435 22.7995 82.5573 23.1016 82.4297C23.4062 82.2995 23.7422 82.2344 24.1094 82.2344C24.474 82.2344 24.8073 82.2995 25.1094 82.4297C25.4141 82.5573 25.6771 82.7435 25.8984 82.9883C26.1198 83.2305 26.2917 83.5247 26.4141 83.8711C26.5365 84.2174 26.5977 84.6081 26.5977 85.043ZM25.207 85.2734V85.0352C25.207 84.7539 25.1823 84.5065 25.1328 84.293C25.0859 84.0768 25.0156 83.8958 24.9219 83.75C24.8281 83.6042 24.7122 83.4948 24.5742 83.4219C24.4388 83.3464 24.2839 83.3086 24.1094 83.3086C23.9271 83.3086 23.7682 83.3464 23.6328 83.4219C23.4974 83.4948 23.3841 83.6042 23.293 83.75C23.2018 83.8958 23.1328 84.0768 23.0859 84.293C23.0417 84.5065 23.0195 84.7539 23.0195 85.0352V85.2734C23.0195 85.5521 23.0417 85.7995 23.0859 86.0156C23.1328 86.2292 23.2018 86.4102 23.293 86.5586C23.3867 86.707 23.5013 86.819 23.6367 86.8945C23.7747 86.9701 23.9349 87.0078 24.1172 87.0078C24.2917 87.0078 24.4466 86.9701 24.582 86.8945C24.7174 86.819 24.8307 86.707 24.9219 86.5586C25.0156 86.4102 25.0859 86.2292 25.1328 86.0156C25.1823 85.7995 25.207 85.5521 25.207 85.2734ZM30.543 86.0742H31.9102C31.8919 86.4701 31.7852 86.819 31.5898 87.1211C31.3945 87.4232 31.1237 87.6589 30.7773 87.8281C30.4336 87.9948 30.0273 88.0781 29.5586 88.0781C29.1784 88.0781 28.8385 88.0143 28.5391 87.8867C28.2422 87.7591 27.9896 87.5755 27.7812 87.3359C27.5755 87.0964 27.418 86.806 27.3086 86.4648C27.2018 86.1237 27.1484 85.7396 27.1484 85.3125V85.0039C27.1484 84.5768 27.2044 84.1927 27.3164 83.8516C27.431 83.5078 27.5924 83.2161 27.8008 82.9766C28.0117 82.7344 28.2643 82.5495 28.5586 82.4219C28.8529 82.2943 29.1797 82.2305 29.5391 82.2305C30.0339 82.2305 30.4518 82.319 30.793 82.4961C31.1341 82.6732 31.3984 82.9167 31.5859 83.2266C31.7734 83.5339 31.8841 83.8841 31.918 84.2773H30.5508C30.5456 84.0638 30.5091 83.8854 30.4414 83.7422C30.3737 83.5964 30.2669 83.487 30.1211 83.4141C29.9753 83.3411 29.7812 83.3047 29.5391 83.3047C29.3698 83.3047 29.2227 83.3359 29.0977 83.3984C28.9727 83.4609 28.8685 83.5599 28.7852 83.6953C28.7018 83.8307 28.6393 84.0065 28.5977 84.2227C28.5586 84.4362 28.5391 84.694 28.5391 84.9961V85.3125C28.5391 85.6146 28.5573 85.8724 28.5938 86.0859C28.6302 86.2995 28.6888 86.474 28.7695 86.6094C28.8503 86.7448 28.9544 86.8451 29.082 86.9102C29.2122 86.9727 29.3711 87.0039 29.5586 87.0039C29.7669 87.0039 29.9427 86.9714 30.0859 86.9062C30.2292 86.8385 30.3398 86.737 30.418 86.6016C30.4961 86.4635 30.5378 86.2878 30.543 86.0742ZM33.9297 82.3125V88H32.5586V82.3125H33.9297ZM37.3242 82.3125L35.1211 85.1953L33.832 86.6055L33.582 85.3477L34.4062 84.0977L35.6328 82.3125H37.3242ZM35.7031 88L34.2344 85.4375L35.3008 84.6523L37.3242 88H35.7031ZM41.5898 86.9453V88H38.5586V86.9453H41.5898ZM39.0469 82.3125V88H37.6758V82.3125H39.0469ZM41.1992 84.5703V85.5898H38.5586V84.5703H41.1992ZM41.6016 82.3125V83.3711H38.5586V82.3125H41.6016ZM44 88H42.7383L42.7461 86.9453H44C44.2604 86.9453 44.4805 86.8828 44.6602 86.7578C44.8424 86.6328 44.9805 86.4466 45.0742 86.1992C45.1706 85.9492 45.2188 85.6419 45.2188 85.2773V85.0312C45.2188 84.7578 45.1914 84.5182 45.1367 84.3125C45.0846 84.1042 45.0065 83.931 44.9023 83.793C44.7982 83.6523 44.668 83.5469 44.5117 83.4766C44.3581 83.4062 44.181 83.3711 43.9805 83.3711H42.7148V82.3125H43.9805C44.3659 82.3125 44.7188 82.3789 45.0391 82.5117C45.362 82.6419 45.6406 82.8294 45.875 83.0742C46.112 83.3164 46.2943 83.6042 46.4219 83.9375C46.5521 84.2682 46.6172 84.6354 46.6172 85.0391V85.2773C46.6172 85.6784 46.5521 86.0456 46.4219 86.3789C46.2943 86.7122 46.1133 87 45.8789 87.2422C45.6445 87.4844 45.3672 87.6719 45.0469 87.8047C44.7292 87.9349 44.3802 88 44 88ZM43.5234 82.3125V88H42.1523V82.3125H43.5234Z" fill="#00A9F6"/>
</svg>
