<svg width="120" height="120" viewBox="0 0 120 120" fill="none" xmlns="http://www.w3.org/2000/svg">
<g clip-path="url(#clip0_57_829)">
<path d="M24.4891 65.9454C1.7146 53.2616 0.173189 6.44597 33.394 10.5594C45.0173 11.9992 53.4681 22.5351 64.2878 26.0929C76.7894 30.1884 85.8585 23.4821 97.7447 24.196C125.998 25.8928 126.972 61.0881 102.823 70.229C89.8166 75.155 77.2613 74.2319 64.1982 72.3619C52.8408 70.716 35.2162 71.9138 24.4891 65.9454Z" fill="#00A9F6"/>
<path opacity="0.7" d="M24.4891 65.9454C1.7146 53.2616 0.173189 6.44597 33.394 10.5594C45.0173 11.9992 53.4681 22.5351 64.2878 26.0929C76.7894 30.1884 85.8585 23.4821 97.7447 24.196C125.998 25.8928 126.972 61.0881 102.823 70.229C89.8166 75.155 77.2613 74.2319 64.1982 72.3619C52.8408 70.716 35.2162 71.9138 24.4891 65.9454Z" fill="#FAFAFA"/>
<path d="M57.9192 110.353C89.907 110.353 115.838 108.839 115.838 106.972C115.838 105.104 89.907 103.59 57.9192 103.59C25.9313 103.59 0 105.104 0 106.972C0 108.839 25.9313 110.353 57.9192 110.353Z" fill="#F5F5F5"/>
<path d="M37.1428 64.0156C36.9657 64.004 36.7997 63.9255 36.6783 63.7959C36.557 63.6664 36.4895 63.4956 36.4895 63.3181C36.4895 63.1406 36.557 62.9698 36.6783 62.8402C36.7997 62.7107 36.9657 62.6322 37.1428 62.6206C38.8515 62.6206 40.2914 60.174 40.2914 57.2764C40.303 57.0993 40.3815 56.9333 40.511 56.812C40.6406 56.6906 40.8114 56.6231 40.9889 56.6231C41.1664 56.6231 41.3372 56.6906 41.4667 56.812C41.5963 56.9333 41.6748 57.0993 41.6864 57.2764C41.6864 61.0553 39.6969 64.0156 37.1428 64.0156Z" fill="#00A9F6"/>
<path d="M47.6848 64.0156C47.5077 64.004 47.3417 63.9255 47.2203 63.7959C47.099 63.6664 47.0315 63.4956 47.0315 63.3181C47.0315 63.1406 47.099 62.9698 47.2203 62.8402C47.3417 62.7107 47.5077 62.6322 47.6848 62.6206C49.3935 62.6206 50.8334 60.174 50.8334 57.2764C50.845 57.0993 50.9235 56.9333 51.053 56.812C51.1826 56.6906 51.3534 56.6231 51.5309 56.6231C51.7084 56.6231 51.8792 56.6906 52.0087 56.812C52.1383 56.9333 52.2168 57.0993 52.2284 57.2764C52.2433 61.0553 50.2329 64.0156 47.6848 64.0156Z" fill="#00A9F6"/>
<path d="M58.2178 64.0157C58.0407 64.0041 57.8746 63.9255 57.7533 63.796C57.632 63.6665 57.5645 63.4956 57.5645 63.3181C57.5645 63.1407 57.632 62.9698 57.7533 62.8403C57.8746 62.7108 58.0407 62.6322 58.2178 62.6206C59.9235 62.6206 61.3663 60.1741 61.3663 57.2765C61.3663 57.0919 61.4397 56.9149 61.5702 56.7843C61.7007 56.6538 61.8777 56.5805 62.0623 56.5805C62.2469 56.5805 62.424 56.6538 62.5545 56.7843C62.685 56.9149 62.7584 57.0919 62.7584 57.2765C62.7673 61.0553 60.7749 64.0157 58.2178 64.0157Z" fill="#00A9F6"/>
<path d="M68.7686 64.0157C68.6732 64.0219 68.5775 64.0085 68.4874 63.9763C68.3974 63.9441 68.3149 63.8937 68.2451 63.8283C68.1753 63.7629 68.1196 63.6839 68.0816 63.5962C68.0436 63.5084 68.0239 63.4138 68.0239 63.3181C68.0239 63.2225 68.0436 63.1279 68.0816 63.0401C68.1196 62.9524 68.1753 62.8734 68.2451 62.808C68.3149 62.7426 68.3974 62.6922 68.4874 62.66C68.5775 62.6278 68.6732 62.6144 68.7686 62.6206C70.4743 62.6206 71.9171 60.1741 71.9171 57.2765C71.9171 57.0919 71.9905 56.9149 72.121 56.7843C72.2515 56.6538 72.4286 56.5805 72.6132 56.5805C72.7978 56.5805 72.9748 56.6538 73.1053 56.7843C73.2358 56.9149 73.3092 57.0919 73.3092 57.2765C73.3092 61.0553 71.3137 64.0157 68.7686 64.0157Z" fill="#00A9F6"/>
<path d="M79.3076 64.0156C79.1305 64.004 78.9645 63.9255 78.8431 63.7959C78.7218 63.6664 78.6543 63.4956 78.6543 63.3181C78.6543 63.1406 78.7218 62.9698 78.8431 62.8402C78.9645 62.7107 79.1305 62.6322 79.3076 62.6206C81.0163 62.6206 82.4562 60.174 82.4562 57.2764C82.4678 57.0993 82.5463 56.9333 82.6758 56.812C82.8054 56.6906 82.9762 56.6231 83.1537 56.6231C83.3312 56.6231 83.502 56.6906 83.6315 56.812C83.7611 56.9333 83.8396 57.0993 83.8512 57.2764C83.8512 61.0553 81.8557 64.0156 79.3076 64.0156Z" fill="#00A9F6"/>
<path d="M89.8494 64.0156C89.6723 64.004 89.5062 63.9255 89.3849 63.7959C89.2636 63.6664 89.196 63.4956 89.196 63.3181C89.196 63.1406 89.2636 62.9698 89.3849 62.8402C89.5062 62.7107 89.6723 62.6322 89.8494 62.6206C91.5551 62.6206 92.9979 60.174 92.9979 57.2764C93.0095 57.0993 93.088 56.9333 93.2176 56.812C93.3471 56.6906 93.5179 56.6231 93.6954 56.6231C93.8729 56.6231 94.0437 56.6906 94.1733 56.812C94.3028 56.9333 94.3813 57.0993 94.3929 57.2764C94.3929 61.0553 92.3975 64.0156 89.8494 64.0156Z" fill="#00A9F6"/>
<g opacity="0.3">
<path d="M37.1428 64.0157C36.9657 64.0041 36.7997 63.9255 36.6783 63.796C36.557 63.6665 36.4895 63.4956 36.4895 63.3182C36.4895 63.1407 36.557 62.9698 36.6783 62.8403C36.7997 62.7108 36.9657 62.6322 37.1428 62.6206C38.8515 62.6206 40.2914 60.1741 40.2914 57.2765C40.303 57.0994 40.3815 56.9333 40.511 56.812C40.6406 56.6907 40.8114 56.6232 40.9889 56.6232C41.1664 56.6232 41.3372 56.6907 41.4667 56.812C41.5963 56.9333 41.6748 57.0994 41.6864 57.2765C41.6864 61.0553 39.6969 64.0157 37.1428 64.0157Z" fill="black"/>
<path d="M47.6848 64.0157C47.5077 64.0041 47.3417 63.9255 47.2203 63.796C47.099 63.6665 47.0315 63.4956 47.0315 63.3182C47.0315 63.1407 47.099 62.9698 47.2203 62.8403C47.3417 62.7108 47.5077 62.6322 47.6848 62.6206C49.3935 62.6206 50.8334 60.1741 50.8334 57.2765C50.845 57.0994 50.9235 56.9333 51.053 56.812C51.1826 56.6907 51.3534 56.6232 51.5309 56.6232C51.7084 56.6232 51.8792 56.6907 52.0087 56.812C52.1383 56.9333 52.2168 57.0994 52.2284 57.2765C52.2433 61.0553 50.2329 64.0157 47.6848 64.0157Z" fill="black"/>
<path d="M58.2178 64.0157C58.0407 64.0041 57.8746 63.9255 57.7533 63.796C57.632 63.6665 57.5645 63.4956 57.5645 63.3181C57.5645 63.1407 57.632 62.9698 57.7533 62.8403C57.8746 62.7108 58.0407 62.6322 58.2178 62.6206C59.9235 62.6206 61.3663 60.1741 61.3663 57.2765C61.3663 57.0919 61.4397 56.9149 61.5702 56.7843C61.7007 56.6538 61.8777 56.5805 62.0623 56.5805C62.2469 56.5805 62.424 56.6538 62.5545 56.7843C62.685 56.9149 62.7584 57.0919 62.7584 57.2765C62.7673 61.0553 60.7749 64.0157 58.2178 64.0157Z" fill="black"/>
<path d="M68.7686 64.0157C68.6732 64.0219 68.5775 64.0085 68.4874 63.9763C68.3974 63.9441 68.3149 63.8937 68.2451 63.8283C68.1753 63.7629 68.1196 63.6839 68.0816 63.5962C68.0436 63.5084 68.0239 63.4138 68.0239 63.3181C68.0239 63.2225 68.0436 63.1279 68.0816 63.0401C68.1196 62.9524 68.1753 62.8734 68.2451 62.808C68.3149 62.7426 68.3974 62.6922 68.4874 62.66C68.5775 62.6278 68.6732 62.6144 68.7686 62.6206C70.4743 62.6206 71.9171 60.1741 71.9171 57.2765C71.9171 57.0919 71.9905 56.9149 72.121 56.7843C72.2515 56.6538 72.4286 56.5805 72.6132 56.5805C72.7978 56.5805 72.9748 56.6538 73.1053 56.7843C73.2358 56.9149 73.3092 57.0919 73.3092 57.2765C73.3092 61.0553 71.3137 64.0157 68.7686 64.0157Z" fill="black"/>
<path d="M79.3074 64.0157C79.1303 64.0041 78.9642 63.9255 78.8429 63.796C78.7216 63.6665 78.6541 63.4956 78.6541 63.3182C78.6541 63.1407 78.7216 62.9698 78.8429 62.8403C78.9642 62.7108 79.1303 62.6322 79.3074 62.6206C81.0161 62.6206 82.4559 60.1741 82.4559 57.2765C82.4675 57.0994 82.546 56.9333 82.6756 56.812C82.8051 56.6907 82.9759 56.6232 83.1534 56.6232C83.3309 56.6232 83.5018 56.6907 83.6313 56.812C83.7608 56.9333 83.8393 57.0994 83.8509 57.2765C83.8509 61.0553 81.8555 64.0157 79.3074 64.0157Z" fill="black"/>
<path d="M89.8494 64.0157C89.6723 64.0041 89.5062 63.9255 89.3849 63.796C89.2636 63.6665 89.196 63.4956 89.196 63.3182C89.196 63.1407 89.2636 62.9698 89.3849 62.8403C89.5062 62.7108 89.6723 62.6322 89.8494 62.6206C91.5551 62.6206 92.9979 60.1741 92.9979 57.2765C93.0095 57.0994 93.088 56.9333 93.2176 56.812C93.3471 56.6907 93.5179 56.6232 93.6954 56.6232C93.8729 56.6232 94.0437 56.6907 94.1733 56.812C94.3028 56.9333 94.3813 57.0994 94.3929 57.2765C94.3929 61.0553 92.3975 64.0157 89.8494 64.0157Z" fill="black"/>
</g>
<path d="M30.538 57.9904H98.4016C99.3115 58.0086 100.184 58.3582 100.854 58.9737C101.524 59.5891 101.947 60.4281 102.043 61.3331L105.801 103.701C105.847 104.126 105.802 104.556 105.669 104.962C105.536 105.369 105.318 105.742 105.03 106.058C104.742 106.374 104.39 106.625 103.998 106.795C103.606 106.965 103.182 107.05 102.754 107.044H34.8874C33.9779 107.024 33.1066 106.674 32.4364 106.059C31.7662 105.444 31.3431 104.605 31.246 103.701L27.4911 61.3331C27.4448 60.9079 27.4896 60.4777 27.6223 60.0711C27.755 59.6645 27.9726 59.2907 28.2607 58.9746C28.5489 58.6585 28.9009 58.4073 29.2935 58.2376C29.6861 58.0679 30.1103 57.9837 30.538 57.9904Z" fill="#00A9F6"/>
<path opacity="0.4" d="M30.538 57.9904H98.4016C99.3115 58.0086 100.184 58.3582 100.854 58.9737C101.524 59.5891 101.947 60.4281 102.043 61.3331L105.801 103.701C105.847 104.126 105.802 104.556 105.669 104.962C105.536 105.369 105.318 105.742 105.03 106.058C104.742 106.374 104.39 106.625 103.998 106.795C103.606 106.965 103.182 107.05 102.754 107.044H34.8874C33.9779 107.024 33.1066 106.674 32.4364 106.059C31.7662 105.444 31.3431 104.605 31.246 103.701L27.4911 61.3331C27.4448 60.9079 27.4896 60.4777 27.6223 60.0711C27.755 59.6645 27.9726 59.2907 28.2607 58.9746C28.5489 58.6585 28.9009 58.4073 29.2935 58.2376C29.6861 58.0679 30.1103 57.9837 30.538 57.9904Z" fill="#FAFAFA"/>
<path d="M97.8372 57.9904H29.9706C29.0729 58.0011 28.2128 58.3522 27.564 58.9727C26.9152 59.5932 26.5262 60.4368 26.4756 61.3331L24.5637 103.701C24.541 104.132 24.6065 104.564 24.7565 104.97C24.9064 105.375 25.1375 105.745 25.4356 106.058C25.7337 106.371 26.0926 106.62 26.4902 106.79C26.8879 106.959 27.3159 107.045 27.7481 107.044H95.6207C96.5184 107.033 97.3785 106.682 98.0273 106.061C98.6761 105.441 99.0651 104.597 99.1157 103.701L101.031 61.3331C101.053 60.9008 100.987 60.4686 100.836 60.0628C100.686 59.657 100.454 59.2862 100.155 58.9732C99.8556 58.6602 99.4959 58.4116 99.0974 58.2426C98.6989 58.0736 98.27 57.9878 97.8372 57.9904V57.9904Z" fill="#00A9F6"/>
<path opacity="0.2" d="M97.8372 57.9904H29.9706C29.0729 58.0011 28.2128 58.3522 27.564 58.9727C26.9152 59.5932 26.5262 60.4368 26.4756 61.3331L24.5637 103.701C24.541 104.132 24.6065 104.564 24.7565 104.97C24.9064 105.375 25.1375 105.745 25.4356 106.058C25.7337 106.371 26.0926 106.62 26.4902 106.79C26.8879 106.959 27.3159 107.045 27.7481 107.044H95.6207C96.5184 107.033 97.3785 106.682 98.0273 106.061C98.6761 105.441 99.0651 104.597 99.1157 103.701L101.031 61.3331C101.053 60.9008 100.987 60.4686 100.836 60.0628C100.686 59.657 100.454 59.2862 100.155 58.9732C99.8556 58.6602 99.4959 58.4116 99.0974 58.2426C98.6989 58.0736 98.27 57.9878 97.8372 57.9904V57.9904Z" fill="#FAFAFA"/>
<path d="M31.2162 95.8474L32.7965 60.8581C32.8154 60.5149 32.9643 60.1918 33.2128 59.9543C33.4614 59.7169 33.791 59.5829 34.1347 59.5796H93.5296C93.6952 59.5786 93.8592 59.6114 94.0117 59.676C94.1641 59.7406 94.3018 59.8357 94.4162 59.9554C94.5306 60.0751 94.6193 60.217 94.6769 60.3722C94.7346 60.5274 94.7599 60.6928 94.7513 60.8581L93.1681 95.8474C93.1492 96.1907 93.0003 96.5138 92.7518 96.7513C92.5032 96.9887 92.1736 97.1227 91.8299 97.126H32.438C32.2724 97.127 32.1084 97.0942 31.9559 97.0296C31.8035 96.9649 31.6658 96.8699 31.5514 96.7501C31.437 96.6304 31.3483 96.4886 31.2906 96.3334C31.233 96.1782 31.2077 96.0128 31.2162 95.8474V95.8474Z" fill="#00A9F6"/>
<path opacity="0.1" d="M31.2162 95.8474L32.7965 60.8581C32.8154 60.5149 32.9643 60.1918 33.2128 59.9543C33.4614 59.7169 33.791 59.5829 34.1347 59.5796H93.5296C93.6952 59.5786 93.8592 59.6114 94.0117 59.676C94.1641 59.7406 94.3018 59.8357 94.4162 59.9554C94.5306 60.0751 94.6193 60.217 94.6769 60.3722C94.7346 60.5274 94.7599 60.6928 94.7513 60.8581L93.1681 95.8474C93.1492 96.1907 93.0003 96.5138 92.7518 96.7513C92.5032 96.9887 92.1736 97.1227 91.8299 97.126H32.438C32.2724 97.127 32.1084 97.0942 31.9559 97.0296C31.8035 96.9649 31.6658 96.8699 31.5514 96.7501C31.437 96.6304 31.3483 96.4886 31.2906 96.3334C31.233 96.1782 31.2077 96.0128 31.2162 95.8474V95.8474Z" fill="#FAFAFA"/>
<path opacity="0.1" d="M29.5403 98.7032L31.1982 61.9604C31.2172 61.6001 31.3731 61.2605 31.6341 61.0113C31.895 60.762 32.2413 60.6217 32.6022 60.6192H94.9753C95.1491 60.6177 95.3214 60.6519 95.4815 60.7195C95.6416 60.7872 95.7861 60.8869 95.9062 61.0126C96.0263 61.1383 96.1193 61.2872 96.1796 61.4502C96.2399 61.6132 96.2662 61.7869 96.2568 61.9604L94.5959 98.7032C94.577 99.0634 94.4216 99.4028 94.1613 99.6525C93.9011 99.9022 93.5555 100.043 93.1949 100.047H30.8158C30.6421 100.049 30.47 100.014 30.3102 99.946C30.1504 99.8779 30.0063 99.7778 29.8867 99.6518C29.7671 99.5258 29.6747 99.3766 29.6151 99.2134C29.5555 99.0503 29.5301 98.8766 29.5403 98.7032V98.7032Z" fill="black"/>
<path d="M27.9992 101.666L29.7288 63.3405C29.752 62.9657 29.9155 62.6135 30.1868 62.3538C30.458 62.0942 30.8171 61.9463 31.1925 61.9395H96.2571C96.4386 61.938 96.6185 61.9737 96.7857 62.0444C96.9529 62.1151 97.1039 62.2193 97.2292 62.3505C97.3546 62.4818 97.4518 62.6374 97.5148 62.8076C97.5777 62.9779 97.6052 63.1592 97.5954 63.3405L95.8568 101.666C95.8336 102.041 95.6701 102.393 95.3988 102.653C95.1276 102.913 94.7685 103.061 94.3931 103.067H29.3375C29.1558 103.069 28.9757 103.034 28.8083 102.963C28.6409 102.893 28.4898 102.789 28.3643 102.657C28.2388 102.526 28.1417 102.37 28.0789 102.2C28.0161 102.029 27.9889 101.848 27.9992 101.666V101.666Z" fill="#FAFAFA"/>
<path d="M89.8404 64.2367C89.7181 64.2369 89.597 64.2121 89.4846 64.1637C89.3722 64.1154 89.2709 64.0445 89.1869 63.9555C89.103 63.8665 89.0381 63.7613 88.9964 63.6462C88.9546 63.5312 88.9369 63.4089 88.9442 63.2868C88.9557 63.0471 89.0582 62.8208 89.2309 62.6543C89.4036 62.4877 89.6334 62.3934 89.8733 62.3906C89.9956 62.3904 90.1167 62.4152 90.2291 62.4636C90.3415 62.5119 90.4428 62.5828 90.5268 62.6718C90.6107 62.7608 90.6756 62.866 90.7173 62.981C90.759 63.0961 90.7768 63.2184 90.7694 63.3405V63.3405C90.758 63.5802 90.6555 63.8064 90.4828 63.973C90.3101 64.1396 90.0803 64.2339 89.8404 64.2367Z" fill="#00A9F6"/>
<path d="M79.2987 64.2367C79.1763 64.2369 79.0552 64.2121 78.9428 64.1637C78.8304 64.1154 78.7291 64.0445 78.6452 63.9555C78.5612 63.8665 78.4964 63.7613 78.4546 63.6462C78.4129 63.5312 78.3952 63.4089 78.4025 63.2868C78.4139 63.0471 78.5164 62.8208 78.6891 62.6543C78.8618 62.4877 79.0916 62.3934 79.3315 62.3906V62.3906C79.4539 62.3904 79.575 62.4152 79.6874 62.4636C79.7997 62.5119 79.901 62.5828 79.985 62.6718C80.069 62.7608 80.1338 62.866 80.1755 62.981C80.2173 63.0961 80.235 63.2184 80.2277 63.3405V63.3405C80.217 63.5804 80.1147 63.8071 79.9418 63.9738C79.769 64.1406 79.5388 64.2346 79.2987 64.2367Z" fill="#00A9F6"/>
<path d="M68.7567 64.2367C68.6343 64.2369 68.5132 64.2121 68.4008 64.1637C68.2884 64.1154 68.1871 64.0445 68.1032 63.9555C68.0192 63.8665 67.9544 63.7613 67.9126 63.6462C67.8709 63.5312 67.8532 63.4089 67.8605 63.2868C67.8726 63.0473 67.9754 62.8215 68.1479 62.6551C68.3204 62.4886 68.5498 62.3941 68.7895 62.3906V62.3906C68.9119 62.3904 69.033 62.4152 69.1454 62.4636C69.2578 62.5119 69.359 62.5828 69.443 62.6718C69.527 62.7608 69.5918 62.866 69.6336 62.981C69.6753 63.0961 69.693 63.2184 69.6857 63.3405V63.3405C69.675 63.5804 69.5727 63.8071 69.3998 63.9738C69.227 64.1406 68.9968 64.2346 68.7567 64.2367V64.2367Z" fill="#00A9F6"/>
<path d="M58.2178 64.2367C58.0955 64.2369 57.9744 64.2121 57.862 64.1637C57.7496 64.1154 57.6483 64.0445 57.5644 63.9555C57.4804 63.8665 57.4156 63.7613 57.3738 63.6462C57.3321 63.5312 57.3143 63.4089 57.3217 63.2868C57.3345 63.0471 57.4379 62.8212 57.6109 62.6549C57.784 62.4885 58.0137 62.394 58.2537 62.3906V62.3906C58.376 62.3904 58.4971 62.4152 58.6095 62.4636C58.7219 62.5119 58.8232 62.5828 58.9072 62.6718C58.9911 62.7608 59.056 62.866 59.0977 62.981C59.1395 63.0961 59.1572 63.2184 59.1499 63.3405V63.3405C59.1391 63.5809 59.0364 63.8081 58.8629 63.9749C58.6895 64.1417 58.4585 64.2354 58.2178 64.2367V64.2367Z" fill="#00A9F6"/>
<path d="M47.6759 64.2367C47.5535 64.2369 47.4324 64.2121 47.32 64.1637C47.2076 64.1154 47.1063 64.0445 47.0224 63.9555C46.9384 63.8665 46.8736 63.7613 46.8318 63.6462C46.7901 63.5312 46.7723 63.4089 46.7797 63.2868V63.2868C46.7911 63.0471 46.8936 62.8208 47.0663 62.6543C47.239 62.4877 47.4688 62.3934 47.7087 62.3906V62.3906C47.8311 62.3904 47.9522 62.4152 48.0646 62.4636C48.1769 62.5119 48.2782 62.5828 48.3622 62.6718C48.4462 62.7608 48.511 62.866 48.5527 62.981C48.5945 63.0961 48.6122 63.2184 48.6049 63.3405V63.3405C48.5935 63.5802 48.4909 63.8064 48.3183 63.973C48.1456 64.1396 47.9158 64.2339 47.6759 64.2367Z" fill="#00A9F6"/>
<path d="M37.1339 64.2367C37.0115 64.2369 36.8904 64.2121 36.778 64.1637C36.6656 64.1154 36.5643 64.0445 36.4804 63.9555C36.3964 63.8665 36.3316 63.7613 36.2898 63.6462C36.2481 63.5312 36.2304 63.4089 36.2377 63.2868C36.2491 63.0471 36.3516 62.8208 36.5243 62.6543C36.697 62.4877 36.9268 62.3934 37.1667 62.3906C37.2891 62.3904 37.4102 62.4152 37.5226 62.4636C37.635 62.5119 37.7362 62.5828 37.8202 62.6718C37.9042 62.7608 37.969 62.866 38.0107 62.981C38.0525 63.0961 38.0702 63.2184 38.0629 63.3405V63.3405C38.0522 63.5804 37.9499 63.8071 37.777 63.9738C37.6042 64.1406 37.374 64.2346 37.1339 64.2367V64.2367Z" fill="#00A9F6"/>
<g opacity="0.1">
<path d="M89.8404 64.2367C89.7181 64.2369 89.597 64.2121 89.4846 64.1637C89.3722 64.1154 89.2709 64.0445 89.1869 63.9555C89.103 63.8665 89.0381 63.7613 88.9964 63.6462C88.9546 63.5312 88.9369 63.4089 88.9442 63.2868C88.9557 63.0471 89.0582 62.8208 89.2309 62.6543C89.4036 62.4877 89.6334 62.3934 89.8733 62.3906C89.9956 62.3904 90.1167 62.4152 90.2291 62.4636C90.3415 62.5119 90.4428 62.5828 90.5268 62.6718C90.6107 62.7608 90.6756 62.866 90.7173 62.981C90.759 63.0961 90.7768 63.2184 90.7694 63.3405V63.3405C90.758 63.5802 90.6555 63.8064 90.4828 63.973C90.3101 64.1396 90.0803 64.2339 89.8404 64.2367Z" fill="#FAFAFA"/>
<path d="M79.2984 64.2367C79.1761 64.2369 79.055 64.2121 78.9426 64.1637C78.8302 64.1154 78.7289 64.0445 78.6449 63.9555C78.561 63.8665 78.4961 63.7613 78.4544 63.6462C78.4126 63.5312 78.3949 63.4089 78.4022 63.2868C78.4137 63.0471 78.5162 62.8208 78.6889 62.6543C78.8616 62.4877 79.0914 62.3934 79.3313 62.3906V62.3906C79.4536 62.3904 79.5747 62.4152 79.6871 62.4636C79.7995 62.5119 79.9008 62.5828 79.9848 62.6718C80.0687 62.7608 80.1336 62.866 80.1753 62.981C80.217 63.0961 80.2348 63.2184 80.2274 63.3405V63.3405C80.2167 63.5804 80.1144 63.8071 79.9416 63.9738C79.7688 64.1406 79.5386 64.2346 79.2984 64.2367Z" fill="#FAFAFA"/>
<path d="M68.7567 64.2367C68.6343 64.2369 68.5132 64.2121 68.4008 64.1637C68.2884 64.1154 68.1871 64.0445 68.1032 63.9555C68.0192 63.8665 67.9544 63.7613 67.9126 63.6462C67.8709 63.5312 67.8532 63.4089 67.8605 63.2868C67.8726 63.0473 67.9754 62.8215 68.1479 62.6551C68.3204 62.4886 68.5498 62.3941 68.7895 62.3906V62.3906C68.9119 62.3904 69.033 62.4152 69.1454 62.4636C69.2578 62.5119 69.359 62.5828 69.443 62.6718C69.527 62.7608 69.5918 62.866 69.6336 62.981C69.6753 63.0961 69.693 63.2184 69.6857 63.3405V63.3405C69.675 63.5804 69.5727 63.8071 69.3998 63.9738C69.227 64.1406 68.9968 64.2346 68.7567 64.2367V64.2367Z" fill="#FAFAFA"/>
<path d="M58.2178 64.2367C58.0955 64.2369 57.9744 64.2121 57.862 64.1637C57.7496 64.1154 57.6483 64.0445 57.5644 63.9555C57.4804 63.8665 57.4156 63.7613 57.3738 63.6462C57.3321 63.5312 57.3143 63.4089 57.3217 63.2868C57.3345 63.0471 57.4379 62.8212 57.6109 62.6549C57.784 62.4885 58.0137 62.394 58.2537 62.3906V62.3906C58.376 62.3904 58.4971 62.4152 58.6095 62.4636C58.7219 62.5119 58.8232 62.5828 58.9072 62.6718C58.9911 62.7608 59.056 62.866 59.0977 62.981C59.1395 63.0961 59.1572 63.2184 59.1499 63.3405V63.3405C59.1391 63.5809 59.0364 63.8081 58.8629 63.9749C58.6895 64.1417 58.4585 64.2354 58.2178 64.2367V64.2367Z" fill="#FAFAFA"/>
<path d="M47.6759 64.2367C47.5535 64.2369 47.4324 64.2121 47.32 64.1637C47.2076 64.1154 47.1063 64.0445 47.0224 63.9555C46.9384 63.8665 46.8736 63.7613 46.8318 63.6462C46.7901 63.5312 46.7723 63.4089 46.7797 63.2868V63.2868C46.7911 63.0471 46.8936 62.8208 47.0663 62.6543C47.239 62.4877 47.4688 62.3934 47.7087 62.3906V62.3906C47.8311 62.3904 47.9522 62.4152 48.0646 62.4636C48.1769 62.5119 48.2782 62.5828 48.3622 62.6718C48.4462 62.7608 48.511 62.866 48.5527 62.981C48.5945 63.0961 48.6122 63.2184 48.6049 63.3405V63.3405C48.5935 63.5802 48.4909 63.8064 48.3183 63.973C48.1456 64.1396 47.9158 64.2339 47.6759 64.2367Z" fill="#FAFAFA"/>
<path d="M37.1339 64.2367C37.0115 64.2369 36.8904 64.2121 36.778 64.1637C36.6656 64.1154 36.5643 64.0445 36.4804 63.9555C36.3964 63.8665 36.3316 63.7613 36.2898 63.6462C36.2481 63.5312 36.2304 63.4089 36.2377 63.2868C36.2491 63.0471 36.3516 62.8208 36.5243 62.6543C36.697 62.4877 36.9268 62.3934 37.1667 62.3906C37.2891 62.3904 37.4102 62.4152 37.5226 62.4636C37.635 62.5119 37.7362 62.5828 37.8202 62.6718C37.9042 62.7608 37.969 62.866 38.0107 62.981C38.0525 63.0961 38.0702 63.2184 38.0629 63.3405V63.3405C38.0522 63.5804 37.9499 63.8071 37.777 63.9738C37.6042 64.1406 37.374 64.2346 37.1339 64.2367V64.2367Z" fill="#FAFAFA"/>
</g>
<path d="M39.7688 67.5763H34.4664C34.3896 67.577 34.3134 67.5617 34.2428 67.5313C34.1721 67.501 34.1085 67.4564 34.056 67.4002C34.0035 67.3441 33.9632 67.2776 33.9377 67.2051C33.9122 67.1326 33.902 67.0556 33.9078 66.9789V66.9789C33.9137 66.8223 33.9786 66.6738 34.0894 66.563C34.2002 66.4522 34.3487 66.3874 34.5053 66.3815H39.8076C39.8845 66.3808 39.9606 66.3962 40.0313 66.4265C40.1019 66.4568 40.1655 66.5014 40.218 66.5576C40.2705 66.6137 40.3108 66.6802 40.3363 66.7527C40.3618 66.8252 40.372 66.9022 40.3662 66.9789V66.9789C40.3603 67.1355 40.2954 67.284 40.1847 67.3948C40.0739 67.5056 39.9253 67.5704 39.7688 67.5763V67.5763Z" fill="#00A9F6"/>
<path d="M50.3107 67.5763H45.0084C44.9316 67.577 44.8554 67.5617 44.7847 67.5313C44.7141 67.501 44.6505 67.4564 44.598 67.4002C44.5455 67.3441 44.5052 67.2776 44.4797 67.2051C44.4542 67.1326 44.444 67.0556 44.4498 66.9789V66.9789C44.4559 66.8198 44.5229 66.6692 44.6368 66.558C44.7508 66.4468 44.903 66.3836 45.0622 66.3815H50.3615C50.4385 66.3809 50.5148 66.3962 50.5856 66.4265C50.6564 66.4568 50.7201 66.5014 50.7729 66.5575C50.8256 66.6136 50.8662 66.68 50.892 66.7525C50.9179 66.825 50.9285 66.9021 50.9231 66.9789V66.9789C50.917 67.138 50.8501 67.2886 50.7361 67.3998C50.6222 67.511 50.4699 67.5742 50.3107 67.5763V67.5763Z" fill="#00A9F6"/>
<path d="M60.8523 67.5763H55.55C55.473 67.5769 55.3967 67.5616 55.3259 67.5313C55.2551 67.5011 55.1914 67.4565 55.1386 67.4004C55.0859 67.3443 55.0453 67.2779 55.0195 67.2053C54.9936 67.1328 54.9831 67.0557 54.9884 66.9789V66.9789C54.9945 66.8198 55.0614 66.6692 55.1754 66.558C55.2893 66.4468 55.4416 66.3836 55.6008 66.3815H60.9061C60.983 66.3808 61.0591 66.3962 61.1298 66.4265C61.2004 66.4568 61.264 66.5014 61.3165 66.5576C61.369 66.6137 61.4093 66.6802 61.4348 66.7527C61.4603 66.8252 61.4705 66.9022 61.4647 66.9789V66.9789C61.4593 67.1382 61.3926 67.2893 61.2785 67.4006C61.1644 67.5119 61.0117 67.5749 60.8523 67.5763Z" fill="#00A9F6"/>
<path d="M71.3913 67.5763H66.089C66.0121 67.577 65.936 67.5617 65.8653 67.5313C65.7947 67.501 65.7311 67.4564 65.6786 67.4002C65.6261 67.3441 65.5858 67.2776 65.5603 67.2051C65.5348 67.1326 65.5246 67.0556 65.5304 66.9789V66.9789C65.5363 66.8223 65.6011 66.6738 65.7119 66.563C65.8227 66.4522 65.9713 66.3874 66.1278 66.3815H71.4301C71.507 66.3808 71.5832 66.3962 71.6538 66.4265C71.7245 66.4568 71.7881 66.5014 71.8406 66.5576C71.8931 66.6137 71.9333 66.6802 71.9588 66.7527C71.9844 66.8252 71.9945 66.9022 71.9887 66.9789V66.9789C71.9828 67.1355 71.918 67.284 71.8072 67.3948C71.6964 67.5056 71.5479 67.5704 71.3913 67.5763V67.5763Z" fill="#00A9F6"/>
<path d="M81.9333 67.5763H76.631C76.5541 67.577 76.478 67.5617 76.4073 67.5313C76.3367 67.501 76.2731 67.4564 76.2206 67.4002C76.1681 67.3441 76.1278 67.2776 76.1023 67.2051C76.0768 67.1326 76.0666 67.0556 76.0724 66.9789C76.0785 66.8198 76.1454 66.6692 76.2594 66.558C76.3733 66.4468 76.5256 66.3836 76.6848 66.3815H81.9871C82.0639 66.3808 82.1401 66.3962 82.2108 66.4265C82.2814 66.4568 82.345 66.5014 82.3975 66.5576C82.45 66.6137 82.4903 66.6802 82.5158 66.7527C82.5413 66.8252 82.5515 66.9022 82.5457 66.9789V66.9789C82.5396 67.138 82.4726 67.2886 82.3587 67.3998C82.2448 67.511 82.0925 67.5742 81.9333 67.5763V67.5763Z" fill="#00A9F6"/>
<path d="M92.4753 67.5763H87.173C87.0961 67.577 87.0199 67.5617 86.9493 67.5313C86.8786 67.501 86.8151 67.4564 86.7626 67.4002C86.7101 67.3441 86.6698 67.2776 86.6443 67.2051C86.6188 67.1326 86.6086 67.0556 86.6144 66.9789V66.9789C86.6205 66.8198 86.6874 66.6692 86.8014 66.558C86.9153 66.4468 87.0676 66.3836 87.2267 66.3815H92.5261C92.6031 66.3809 92.6794 66.3962 92.7501 66.4265C92.8209 66.4568 92.8847 66.5014 92.9374 66.5575C92.9902 66.6136 93.0307 66.68 93.0566 66.7525C93.0824 66.825 93.093 66.9021 93.0877 66.9789V66.9789C93.0816 67.138 93.0146 67.2886 92.9007 67.3998C92.7867 67.511 92.6345 67.5742 92.4753 67.5763V67.5763Z" fill="#00A9F6"/>
<g opacity="0.3">
<path d="M39.7688 67.5763H34.4664C34.3896 67.577 34.3134 67.5617 34.2428 67.5313C34.1721 67.501 34.1085 67.4564 34.056 67.4002C34.0035 67.3441 33.9632 67.2776 33.9377 67.2051C33.9122 67.1326 33.902 67.0556 33.9078 66.9789V66.9789C33.9137 66.8223 33.9786 66.6738 34.0894 66.563C34.2002 66.4522 34.3487 66.3874 34.5053 66.3815H39.8076C39.8845 66.3808 39.9606 66.3962 40.0313 66.4265C40.1019 66.4568 40.1655 66.5014 40.218 66.5576C40.2705 66.6137 40.3108 66.6802 40.3363 66.7527C40.3618 66.8252 40.372 66.9022 40.3662 66.9789V66.9789C40.3603 67.1355 40.2954 67.284 40.1847 67.3948C40.0739 67.5056 39.9253 67.5704 39.7688 67.5763V67.5763Z" fill="black"/>
<path d="M50.3107 67.5763H45.0084C44.9316 67.577 44.8554 67.5617 44.7847 67.5313C44.7141 67.501 44.6505 67.4564 44.598 67.4002C44.5455 67.3441 44.5052 67.2776 44.4797 67.2051C44.4542 67.1326 44.444 67.0556 44.4498 66.9789V66.9789C44.4559 66.8198 44.5229 66.6692 44.6368 66.558C44.7508 66.4468 44.903 66.3836 45.0622 66.3815H50.3615C50.4385 66.3809 50.5148 66.3962 50.5856 66.4265C50.6564 66.4568 50.7201 66.5014 50.7729 66.5575C50.8256 66.6136 50.8662 66.68 50.892 66.7525C50.9179 66.825 50.9285 66.9021 50.9231 66.9789V66.9789C50.917 67.138 50.8501 67.2886 50.7361 67.3998C50.6222 67.511 50.4699 67.5742 50.3107 67.5763V67.5763Z" fill="black"/>
<path d="M60.8526 67.5763H55.5503C55.4733 67.5769 55.397 67.5616 55.3262 67.5313C55.2554 67.5011 55.1916 67.4565 55.1389 67.4004C55.0862 67.3443 55.0456 67.2779 55.0197 67.2053C54.9939 67.1328 54.9833 67.0557 54.9887 66.9789V66.9789C54.9948 66.8198 55.0617 66.6692 55.1756 66.558C55.2896 66.4468 55.4419 66.3836 55.601 66.3815H60.9063C60.9832 66.3808 61.0594 66.3962 61.13 66.4265C61.2007 66.4568 61.2642 66.5014 61.3167 66.5576C61.3693 66.6137 61.4095 66.6802 61.435 66.7527C61.4605 66.8252 61.4707 66.9022 61.4649 66.9789V66.9789C61.4596 67.1382 61.3929 67.2893 61.2788 67.4006C61.1647 67.5119 61.012 67.5749 60.8526 67.5763Z" fill="black"/>
<path d="M71.3913 67.5763H66.089C66.0121 67.577 65.936 67.5617 65.8653 67.5313C65.7947 67.501 65.7311 67.4564 65.6786 67.4002C65.6261 67.3441 65.5858 67.2776 65.5603 67.2051C65.5348 67.1326 65.5246 67.0556 65.5304 66.9789V66.9789C65.5363 66.8223 65.6011 66.6738 65.7119 66.563C65.8227 66.4522 65.9713 66.3874 66.1278 66.3815H71.4301C71.507 66.3808 71.5832 66.3962 71.6538 66.4265C71.7245 66.4568 71.7881 66.5014 71.8406 66.5576C71.8931 66.6137 71.9333 66.6802 71.9588 66.7527C71.9844 66.8252 71.9945 66.9022 71.9887 66.9789V66.9789C71.9828 67.1355 71.918 67.284 71.8072 67.3948C71.6964 67.5056 71.5479 67.5704 71.3913 67.5763V67.5763Z" fill="black"/>
<path d="M81.9333 67.5763H76.631C76.5541 67.577 76.478 67.5617 76.4073 67.5313C76.3367 67.501 76.2731 67.4564 76.2206 67.4002C76.1681 67.3441 76.1278 67.2776 76.1023 67.2051C76.0768 67.1326 76.0666 67.0556 76.0724 66.9789C76.0785 66.8198 76.1454 66.6692 76.2594 66.558C76.3733 66.4468 76.5256 66.3836 76.6848 66.3815H81.9871C82.0639 66.3808 82.1401 66.3962 82.2108 66.4265C82.2814 66.4568 82.345 66.5014 82.3975 66.5576C82.45 66.6137 82.4903 66.6802 82.5158 66.7527C82.5413 66.8252 82.5515 66.9022 82.5457 66.9789V66.9789C82.5396 67.138 82.4726 67.2886 82.3587 67.3998C82.2448 67.511 82.0925 67.5742 81.9333 67.5763V67.5763Z" fill="black"/>
<path d="M92.4753 67.5763H87.173C87.0961 67.577 87.0199 67.5617 86.9493 67.5313C86.8786 67.501 86.8151 67.4564 86.7626 67.4002C86.7101 67.3441 86.6698 67.2776 86.6443 67.2051C86.6188 67.1326 86.6086 67.0556 86.6144 66.9789V66.9789C86.6205 66.8198 86.6874 66.6692 86.8014 66.558C86.9153 66.4468 87.0676 66.3836 87.2267 66.3815H92.5261C92.6031 66.3809 92.6794 66.3962 92.7501 66.4265C92.8209 66.4568 92.8847 66.5014 92.9374 66.5575C92.9902 66.6136 93.0307 66.68 93.0566 66.7525C93.0824 66.825 93.093 66.9021 93.0877 66.9789V66.9789C93.0816 67.138 93.0146 67.2886 92.9007 67.3998C92.7867 67.511 92.6345 67.5742 92.4753 67.5763V67.5763Z" fill="black"/>
</g>
<path d="M40.0615 78.8591H33.155C33.0036 78.8597 32.8536 78.8294 32.7142 78.7701C32.5748 78.7107 32.449 78.6236 32.3444 78.514C32.2399 78.4044 32.1588 78.2747 32.106 78.1326C32.0533 77.9906 32.0301 77.8394 32.0378 77.6881L32.3365 70.7816C32.3547 70.4677 32.4911 70.1723 32.7184 69.955C32.9457 69.7377 33.2469 69.6147 33.5613 69.6107H40.4678C40.6192 69.6101 40.7692 69.6403 40.9086 69.6997C41.048 69.759 41.1738 69.8461 41.2784 69.9557C41.3829 70.0653 41.464 70.1951 41.5168 70.3371C41.5695 70.4791 41.5927 70.6304 41.585 70.7816L41.2863 77.6881C41.2674 78.0018 41.1308 78.2968 40.9036 78.5139C40.6765 78.7311 40.3757 78.8544 40.0615 78.8591Z" fill="#00A9F6"/>
<path d="M50.6034 78.8591H43.697C43.5454 78.8601 43.3951 78.8301 43.2556 78.7709C43.116 78.7118 42.99 78.6246 42.8854 78.515C42.7807 78.4053 42.6996 78.2753 42.647 78.1331C42.5945 77.9909 42.5716 77.8395 42.5797 77.6881L42.8785 70.7816C42.8966 70.4677 43.033 70.1723 43.2603 69.955C43.4876 69.7377 43.7888 69.6147 44.1032 69.6107H51.0186C51.1702 69.6101 51.3204 69.6404 51.4599 69.6997C51.5994 69.759 51.7254 69.846 51.8302 69.9556C51.935 70.0651 52.0164 70.1949 52.0695 70.3369C52.1225 70.4789 52.1461 70.6302 52.1388 70.7816L51.8252 77.6881C51.8078 78.0018 51.672 78.2971 51.4452 78.5145C51.2184 78.7319 50.9175 78.855 50.6034 78.8591V78.8591Z" fill="#00A9F6"/>
<path d="M61.1422 78.8591H54.2387C54.0871 78.8597 53.937 78.8294 53.7974 78.7701C53.6579 78.7108 53.5319 78.6237 53.4271 78.5142C53.3223 78.4046 53.2409 78.2749 53.1878 78.1329C53.1348 77.9909 53.1112 77.8395 53.1185 77.6881L53.4172 70.7817C53.4353 70.4677 53.5718 70.1724 53.7991 69.9551C54.0263 69.7378 54.3275 69.6147 54.642 69.6107H61.5454C61.697 69.6096 61.8472 69.6396 61.9868 69.6988C62.1264 69.758 62.2524 69.8451 62.357 69.9548C62.4617 70.0645 62.5428 70.1944 62.5953 70.3366C62.6479 70.4788 62.6708 70.6303 62.6626 70.7817L62.3639 77.6881C62.3458 78.0015 62.2098 78.2965 61.9832 78.5137C61.7565 78.7309 61.4561 78.8543 61.1422 78.8591V78.8591Z" fill="#00A9F6"/>
<path d="M71.6841 78.8591H64.7896C64.6379 78.8601 64.4876 78.8301 64.3478 78.771C64.2081 78.7118 64.0819 78.6247 63.9771 78.5151C63.8722 78.4055 63.7908 78.2756 63.7379 78.1334C63.685 77.9911 63.6617 77.8396 63.6694 77.6881L63.9681 70.7816C63.9855 70.468 64.1213 70.1726 64.3481 69.9553C64.5749 69.7379 64.8758 69.6147 65.1899 69.6107H72.0964C72.2478 69.6101 72.3978 69.6403 72.5372 69.6997C72.6766 69.759 72.8024 69.8461 72.907 69.9557C73.0115 70.0653 73.0926 70.1951 73.1454 70.3371C73.1981 70.4791 73.2213 70.6304 73.2136 70.7816L72.9149 77.6881C72.8967 78.003 72.7594 78.2993 72.5308 78.5167C72.3023 78.7342 71.9996 78.8566 71.6841 78.8591V78.8591Z" fill="#00A9F6"/>
<path d="M82.226 78.8591H75.3196C75.1681 78.8597 75.0181 78.8294 74.8787 78.7701C74.7394 78.7108 74.6135 78.6236 74.509 78.514C74.4044 78.4044 74.3233 78.2747 74.2706 78.1327C74.2179 77.9907 74.1947 77.8394 74.2024 77.6881L74.5011 70.7817C74.5192 70.4677 74.6557 70.1724 74.8829 69.9551C75.1102 69.7378 75.4114 69.6147 75.7258 69.6107H82.6293C82.781 69.6097 82.9314 69.6397 83.0711 69.6988C83.2108 69.758 83.337 69.845 83.4419 69.9547C83.5468 70.0643 83.6282 70.1942 83.6811 70.3364C83.734 70.4786 83.7573 70.6301 83.7495 70.7817L83.4508 77.6881C83.432 78.0018 83.2953 78.2968 83.0682 78.5139C82.8411 78.7311 82.5402 78.8544 82.226 78.8591Z" fill="#00A9F6"/>
<path d="M92.765 78.8591H85.8615C85.7099 78.8601 85.5597 78.8301 85.4201 78.7709C85.2806 78.7118 85.1546 78.6246 85.0499 78.515C84.9453 78.4053 84.8642 78.2753 84.8116 78.1331C84.759 77.9909 84.7361 77.8395 84.7443 77.6881L85.043 70.7816C85.0611 70.4677 85.1976 70.1723 85.4249 69.955C85.6521 69.7377 85.9533 69.6147 86.2678 69.6107H93.1712C93.3228 69.6101 93.473 69.6404 93.6125 69.6997C93.752 69.759 93.878 69.846 93.9828 69.9556C94.0876 70.0651 94.169 70.1949 94.2221 70.3369C94.2751 70.4789 94.2987 70.6302 94.2914 70.7816L93.9778 77.6881C93.9605 78.0002 93.826 78.2943 93.6011 78.5115C93.3762 78.7286 93.0775 78.8528 92.765 78.8591Z" fill="#00A9F6"/>
<g opacity="0.8">
<path d="M40.0615 78.8591H33.155C33.0036 78.8598 32.8536 78.8295 32.7142 78.7701C32.5748 78.7108 32.449 78.6237 32.3444 78.5141C32.2399 78.4045 32.1588 78.2747 32.106 78.1327C32.0533 77.9907 32.0301 77.8394 32.0378 77.6882L32.3365 70.7817C32.3547 70.4678 32.4911 70.1724 32.7184 69.9551C32.9457 69.7378 33.2469 69.6147 33.5613 69.6107H40.4678C40.6192 69.6101 40.7692 69.6404 40.9086 69.6997C41.048 69.7591 41.1738 69.8462 41.2784 69.9558C41.3829 70.0654 41.464 70.1952 41.5168 70.3372C41.5695 70.4792 41.5927 70.6304 41.585 70.7817L41.2863 77.6882C41.2674 78.0018 41.1308 78.2968 40.9036 78.514C40.6765 78.7311 40.3757 78.8544 40.0615 78.8591Z" fill="#FAFAFA"/>
<path d="M50.6034 78.8591H43.697C43.5454 78.8601 43.3951 78.8301 43.2556 78.7709C43.116 78.7118 42.99 78.6246 42.8854 78.515C42.7807 78.4053 42.6996 78.2753 42.647 78.1331C42.5945 77.9909 42.5716 77.8395 42.5797 77.6881L42.8785 70.7816C42.8966 70.4677 43.033 70.1723 43.2603 69.955C43.4876 69.7377 43.7888 69.6147 44.1032 69.6107H51.0186C51.1702 69.6101 51.3204 69.6404 51.4599 69.6997C51.5994 69.759 51.7254 69.846 51.8302 69.9556C51.935 70.0651 52.0164 70.1949 52.0695 70.3369C52.1225 70.4789 52.1461 70.6302 52.1388 70.7816L51.8252 77.6881C51.8078 78.0018 51.672 78.2971 51.4452 78.5145C51.2184 78.7319 50.9175 78.855 50.6034 78.8591V78.8591Z" fill="#FAFAFA"/>
<path d="M61.1422 78.8591H54.2387C54.0871 78.8597 53.937 78.8294 53.7974 78.7701C53.6579 78.7108 53.5319 78.6237 53.4271 78.5142C53.3223 78.4046 53.2409 78.2749 53.1878 78.1329C53.1348 77.9909 53.1112 77.8395 53.1185 77.6881L53.4172 70.7817C53.4353 70.4677 53.5718 70.1724 53.7991 69.9551C54.0263 69.7378 54.3275 69.6147 54.642 69.6107H61.5454C61.697 69.6096 61.8472 69.6396 61.9868 69.6988C62.1264 69.758 62.2524 69.8451 62.357 69.9548C62.4617 70.0645 62.5428 70.1944 62.5953 70.3366C62.6479 70.4788 62.6708 70.6303 62.6626 70.7817L62.3639 77.6881C62.3458 78.0015 62.2098 78.2965 61.9832 78.5137C61.7565 78.7309 61.4561 78.8543 61.1422 78.8591V78.8591Z" fill="#FAFAFA"/>
<path d="M71.6841 78.8591H64.7896C64.6379 78.8601 64.4876 78.8301 64.3478 78.771C64.2081 78.7118 64.0819 78.6247 63.9771 78.5151C63.8722 78.4055 63.7908 78.2756 63.7379 78.1334C63.685 77.9911 63.6617 77.8396 63.6694 77.6881L63.9681 70.7816C63.9855 70.468 64.1213 70.1726 64.3481 69.9553C64.5749 69.7379 64.8758 69.6147 65.1899 69.6107H72.0964C72.2478 69.6101 72.3978 69.6403 72.5372 69.6997C72.6766 69.759 72.8024 69.8461 72.907 69.9557C73.0115 70.0653 73.0926 70.1951 73.1454 70.3371C73.1981 70.4791 73.2213 70.6304 73.2136 70.7816L72.9149 77.6881C72.8967 78.003 72.7594 78.2993 72.5308 78.5167C72.3023 78.7342 71.9996 78.8566 71.6841 78.8591V78.8591Z" fill="#FAFAFA"/>
<path d="M82.226 78.8591H75.3196C75.1681 78.8597 75.0181 78.8294 74.8787 78.7701C74.7394 78.7108 74.6135 78.6236 74.509 78.514C74.4044 78.4044 74.3233 78.2747 74.2706 78.1327C74.2179 77.9907 74.1947 77.8394 74.2024 77.6881L74.5011 70.7817C74.5192 70.4677 74.6557 70.1724 74.8829 69.9551C75.1102 69.7378 75.4114 69.6147 75.7258 69.6107H82.6293C82.781 69.6097 82.9314 69.6397 83.0711 69.6988C83.2108 69.758 83.337 69.845 83.4419 69.9547C83.5468 70.0643 83.6282 70.1942 83.6811 70.3364C83.734 70.4786 83.7573 70.6301 83.7495 70.7817L83.4508 77.6881C83.432 78.0018 83.2953 78.2968 83.0682 78.5139C82.8411 78.7311 82.5402 78.8544 82.226 78.8591Z" fill="#FAFAFA"/>
<path d="M92.765 78.8591H85.8615C85.7099 78.8601 85.5597 78.8301 85.4201 78.7709C85.2806 78.7118 85.1546 78.6246 85.0499 78.515C84.9453 78.4053 84.8642 78.2753 84.8116 78.1331C84.759 77.9909 84.7361 77.8395 84.7443 77.6881L85.043 70.7816C85.0611 70.4677 85.1976 70.1723 85.4249 69.955C85.6521 69.7377 85.9533 69.6147 86.2678 69.6107H93.1712C93.3228 69.6101 93.473 69.6404 93.6125 69.6997C93.752 69.759 93.878 69.846 93.9828 69.9556C94.0876 70.0651 94.169 70.1949 94.2221 70.3369C94.2751 70.4789 94.2987 70.6302 94.2914 70.7816L93.9778 77.6881C93.9605 78.0002 93.826 78.2943 93.6011 78.5115C93.3762 78.7286 93.0775 78.8528 92.765 78.8591Z" fill="#FAFAFA"/>
</g>
<path d="M39.5776 89.5742H32.6712C32.5197 89.5748 32.3697 89.5445 32.2303 89.4852C32.0909 89.4259 31.9651 89.3388 31.8605 89.2292C31.756 89.1196 31.6749 88.9898 31.6221 88.8478C31.5694 88.7058 31.5462 88.5545 31.5539 88.4032L31.8527 81.4968C31.8715 81.1831 32.0081 80.8881 32.2353 80.671C32.4624 80.4538 32.7632 80.3305 33.0774 80.3258H39.9958C40.1473 80.3252 40.2973 80.3555 40.4367 80.4148C40.576 80.4742 40.7019 80.5613 40.8064 80.6709C40.911 80.7805 40.9921 80.9102 41.0448 81.0523C41.0975 81.1943 41.1208 81.3455 41.113 81.4968L40.8143 88.4032C40.7954 88.719 40.657 89.0157 40.4273 89.2331C40.1977 89.4506 39.8939 89.5725 39.5776 89.5742V89.5742Z" fill="#00A9F6"/>
<path d="M50.1196 89.5743H43.2132C43.0617 89.5749 42.9117 89.5446 42.7723 89.4852C42.6329 89.4259 42.5071 89.3388 42.4025 89.2292C42.298 89.1196 42.2169 88.9898 42.1641 88.8478C42.1114 88.7058 42.0882 88.5545 42.0959 88.4033L42.3947 81.4968C42.4128 81.1829 42.5492 80.8875 42.7765 80.6702C43.0038 80.4529 43.305 80.3298 43.6194 80.3258H50.5229C50.6758 80.3248 50.8273 80.3551 50.968 80.4149C51.1087 80.4748 51.2357 80.5629 51.341 80.6738C51.4463 80.7846 51.5277 80.916 51.5802 81.0596C51.6326 81.2032 51.6551 81.3561 51.6461 81.5088L51.3473 88.4033C51.3299 88.7179 51.1932 89.0142 50.9652 89.2317C50.7371 89.4492 50.4348 89.5717 50.1196 89.5743V89.5743Z" fill="#00A9F6"/>
<path d="M60.6583 89.5743H53.7548C53.6032 89.5753 53.453 89.5453 53.3134 89.4861C53.1739 89.4269 53.0479 89.3398 52.9432 89.2301C52.8386 89.1204 52.7575 88.9905 52.7049 88.8483C52.6523 88.7061 52.6294 88.5546 52.6376 88.4033L52.9363 81.4968C52.9544 81.1829 53.0909 80.8875 53.3182 80.6702C53.5454 80.4529 53.8467 80.3298 54.1611 80.3258H61.0645C61.2161 80.3248 61.3663 80.3548 61.5059 80.414C61.6455 80.4731 61.7715 80.5603 61.8761 80.67C61.9808 80.7796 62.0619 80.9096 62.1144 81.0518C62.167 81.194 62.1899 81.3454 62.1818 81.4968L61.883 88.4033C61.8649 88.7172 61.7285 89.0126 61.5012 89.2299C61.2739 89.4472 60.9727 89.5702 60.6583 89.5743V89.5743Z" fill="#00A9F6"/>
<path d="M71.2 89.5743H64.2966C64.1449 89.5748 63.9948 89.5446 63.8553 89.4853C63.7158 89.426 63.5898 89.3389 63.485 89.2293C63.3802 89.1198 63.2988 88.9901 63.2457 88.848C63.1926 88.706 63.169 88.5547 63.1763 88.4033L63.4751 81.4968C63.4924 81.1832 63.6283 80.8878 63.8551 80.6704C64.0819 80.453 64.3827 80.3299 64.6968 80.3258H71.6033C71.7571 80.3231 71.9098 80.3522 72.0518 80.4113C72.1937 80.4704 72.322 80.5583 72.4283 80.6695C72.5347 80.7806 72.6169 80.9125 72.6697 81.057C72.7226 81.2014 72.745 81.3552 72.7354 81.5088L72.4367 88.4152C72.4155 88.7291 72.2761 89.0232 72.0466 89.2383C71.8171 89.4534 71.5146 89.5735 71.2 89.5743V89.5743Z" fill="#00A9F6"/>
<path d="M81.7422 89.5742H74.8357C74.6842 89.5748 74.5342 89.5445 74.3949 89.4852C74.2555 89.4259 74.1297 89.3388 74.0251 89.2292C73.9205 89.1196 73.8394 88.9898 73.7867 88.8478C73.734 88.7058 73.7108 88.5545 73.7185 88.4032L74.0172 81.4968C74.0331 81.1805 74.1689 80.8821 74.397 80.6624C74.6251 80.4426 74.9283 80.318 75.245 80.3139H82.1514C82.3029 80.3132 82.4529 80.3435 82.5923 80.4029C82.7316 80.4622 82.8574 80.5493 82.962 80.6589C83.0666 80.7685 83.1477 80.8983 83.2004 81.0403C83.2531 81.1823 83.2763 81.3336 83.2686 81.4848L82.9699 88.3913C82.954 88.7076 82.8182 89.006 82.5901 89.2257C82.362 89.4454 82.0588 89.5701 81.7422 89.5742Z" fill="#00A9F6"/>
<path d="M92.2721 89.5742H85.3776C85.226 89.5753 85.0758 89.5453 84.9362 89.4861C84.7967 89.4269 84.6707 89.3398 84.566 89.2301C84.4614 89.1204 84.3803 88.9905 84.3277 88.8483C84.2752 88.7061 84.2522 88.5546 84.2604 88.4032L84.5591 81.4968C84.5772 81.1829 84.7137 80.8875 84.941 80.6702C85.1683 80.4529 85.4695 80.3298 85.7839 80.3258H92.6873C92.8389 80.3252 92.9891 80.3555 93.1286 80.4148C93.2681 80.4741 93.3941 80.5612 93.4989 80.6707C93.6037 80.7803 93.6851 80.91 93.7382 81.052C93.7912 81.194 93.8149 81.3454 93.8076 81.4968L93.4939 88.4032C93.4765 88.7169 93.3407 89.0123 93.1139 89.2296C92.8871 89.447 92.5862 89.5702 92.2721 89.5742V89.5742Z" fill="#00A9F6"/>
<g opacity="0.8">
<path d="M39.5776 89.5742H32.6712C32.5197 89.5748 32.3697 89.5445 32.2303 89.4852C32.0909 89.4259 31.9651 89.3388 31.8605 89.2292C31.756 89.1196 31.6749 88.9898 31.6221 88.8478C31.5694 88.7058 31.5462 88.5545 31.5539 88.4032L31.8527 81.4968C31.8715 81.1831 32.0081 80.8881 32.2353 80.671C32.4624 80.4538 32.7632 80.3305 33.0774 80.3258H39.9958C40.1473 80.3252 40.2973 80.3555 40.4367 80.4148C40.576 80.4742 40.7019 80.5613 40.8064 80.6709C40.911 80.7805 40.9921 80.9102 41.0448 81.0523C41.0975 81.1943 41.1208 81.3455 41.113 81.4968L40.8143 88.4032C40.7954 88.719 40.657 89.0157 40.4273 89.2331C40.1977 89.4506 39.8939 89.5725 39.5776 89.5742V89.5742Z" fill="#FAFAFA"/>
<path d="M50.1194 89.5742H43.2129C43.0614 89.5748 42.9114 89.5445 42.772 89.4852C42.6327 89.4259 42.5069 89.3388 42.4023 89.2292C42.2977 89.1196 42.2166 88.9898 42.1639 88.8478C42.1112 88.7058 42.088 88.5545 42.0957 88.4032L42.3944 81.4968C42.4125 81.1829 42.549 80.8875 42.7763 80.6702C43.0035 80.4529 43.3047 80.3298 43.6192 80.3258H50.5226C50.6755 80.3247 50.8271 80.355 50.9678 80.4149C51.1085 80.4747 51.2354 80.5628 51.3407 80.6737C51.446 80.7846 51.5274 80.9159 51.5799 81.0596C51.6324 81.2032 51.6548 81.3561 51.6458 81.5087L51.3471 88.4032C51.3296 88.7179 51.193 89.0141 50.9649 89.2317C50.7369 89.4492 50.4345 89.5717 50.1194 89.5742V89.5742Z" fill="#FAFAFA"/>
<path d="M60.6583 89.5742H53.7548C53.6032 89.5753 53.453 89.5453 53.3134 89.4861C53.1739 89.4269 53.0479 89.3398 52.9432 89.2301C52.8386 89.1204 52.7575 88.9905 52.7049 88.8483C52.6523 88.7061 52.6294 88.5546 52.6376 88.4032L52.9363 81.4968C52.9544 81.1829 53.0909 80.8875 53.3182 80.6702C53.5454 80.4529 53.8467 80.3298 54.1611 80.3258H61.0645C61.2161 80.3248 61.3663 80.3548 61.5059 80.4139C61.6455 80.4731 61.7715 80.5602 61.8761 80.6699C61.9808 80.7796 62.0619 80.9096 62.1144 81.0518C62.167 81.194 62.1899 81.3454 62.1818 81.4968L61.883 88.4032C61.8649 88.7172 61.7285 89.0125 61.5012 89.2298C61.2739 89.4471 60.9727 89.5702 60.6583 89.5742V89.5742Z" fill="#FAFAFA"/>
<path d="M71.2003 89.5742H64.2968C64.1452 89.5748 63.9951 89.5445 63.8555 89.4852C63.716 89.4259 63.59 89.3388 63.4852 89.2293C63.3804 89.1197 63.299 88.99 63.2459 88.848C63.1929 88.706 63.1693 88.5546 63.1766 88.4032L63.4753 81.4968C63.4927 81.1831 63.6285 80.8877 63.8553 80.6704C64.0821 80.453 64.383 80.3298 64.6971 80.3258H71.6035C71.7573 80.323 71.91 80.3521 72.052 80.4112C72.194 80.4704 72.3222 80.5583 72.4285 80.6694C72.5349 80.7805 72.6171 80.9125 72.67 81.0569C72.7228 81.2014 72.7452 81.3552 72.7357 81.5087L72.437 88.4152C72.4158 88.729 72.2764 89.0231 72.0469 89.2382C71.8174 89.4533 71.5148 89.5734 71.2003 89.5742V89.5742Z" fill="#FAFAFA"/>
<path d="M81.7422 89.5742H74.8357C74.6842 89.5748 74.5342 89.5445 74.3949 89.4852C74.2555 89.4259 74.1297 89.3388 74.0251 89.2292C73.9205 89.1196 73.8394 88.9898 73.7867 88.8478C73.734 88.7058 73.7108 88.5545 73.7185 88.4032L74.0172 81.4968C74.0331 81.1805 74.1689 80.8821 74.397 80.6624C74.6251 80.4426 74.9283 80.318 75.245 80.3139H82.1514C82.3029 80.3132 82.4529 80.3435 82.5923 80.4029C82.7316 80.4622 82.8574 80.5493 82.962 80.6589C83.0666 80.7685 83.1477 80.8983 83.2004 81.0403C83.2531 81.1823 83.2763 81.3336 83.2686 81.4848L82.9699 88.3913C82.954 88.7076 82.8182 89.006 82.5901 89.2257C82.362 89.4454 82.0588 89.5701 81.7422 89.5742Z" fill="#FAFAFA"/>
<path d="M92.2721 89.5742H85.3776C85.226 89.5753 85.0758 89.5453 84.9362 89.4861C84.7967 89.4269 84.6707 89.3398 84.566 89.2301C84.4614 89.1204 84.3803 88.9905 84.3277 88.8483C84.2752 88.7061 84.2522 88.5546 84.2604 88.4032L84.5591 81.4968C84.5772 81.1829 84.7137 80.8875 84.941 80.6702C85.1683 80.4529 85.4695 80.3298 85.7839 80.3258H92.6873C92.8389 80.3252 92.9891 80.3555 93.1286 80.4148C93.2681 80.4741 93.3941 80.5612 93.4989 80.6707C93.6037 80.7803 93.6851 80.91 93.7382 81.052C93.7912 81.194 93.8149 81.3454 93.8076 81.4968L93.4939 88.4032C93.4765 88.7169 93.3407 89.0123 93.1139 89.2296C92.8871 89.447 92.5862 89.5702 92.2721 89.5742V89.5742Z" fill="#FAFAFA"/>
</g>
<path d="M39.0996 100.286H32.1872C32.0356 100.287 31.8854 100.257 31.7458 100.198C31.6062 100.139 31.4802 100.052 31.3756 99.9423C31.2709 99.8326 31.1898 99.7027 31.1373 99.5605C31.0847 99.4183 31.0618 99.2668 31.07 99.1154L31.3687 92.212C31.3868 91.898 31.5233 91.6027 31.7505 91.3854C31.9778 91.1681 32.279 91.045 32.5935 91.041H39.4999C39.6515 91.0399 39.8017 91.0699 39.9413 91.1291C40.0809 91.1883 40.2068 91.2754 40.3115 91.3851C40.4161 91.4948 40.4972 91.6247 40.5498 91.7669C40.6024 91.9091 40.6253 92.0606 40.6171 92.212L40.3184 99.1154C40.301 99.4286 40.1657 99.7235 39.9395 99.9408C39.7133 100.158 39.4132 100.282 39.0996 100.286V100.286Z" fill="#00A9F6"/>
<path d="M49.6356 100.286H42.7292C42.5776 100.287 42.4274 100.257 42.2878 100.198C42.1482 100.139 42.0222 100.052 41.9176 99.9423C41.8129 99.8326 41.7318 99.7027 41.6793 99.5605C41.6267 99.4183 41.6038 99.2668 41.612 99.1154L41.9107 92.212C41.9281 91.8978 42.0643 91.602 42.2918 91.3846C42.5192 91.1671 42.8208 91.0443 43.1354 91.041H50.0389C50.1907 91.0395 50.3413 91.0692 50.4812 91.1282C50.6211 91.1872 50.7475 91.2743 50.8525 91.384C50.9574 91.4937 51.0388 91.6238 51.0915 91.7662C51.1443 91.9086 51.1673 92.0603 51.1591 92.212L50.8604 99.1154C50.8437 99.4298 50.7076 99.726 50.4801 99.9436C50.2525 100.161 49.9505 100.284 49.6356 100.286V100.286Z" fill="#00A9F6"/>
<path d="M60.1744 100.286H53.2709C53.1193 100.287 52.9691 100.257 52.8295 100.198C52.69 100.139 52.564 100.052 52.4593 99.9423C52.3547 99.8326 52.2736 99.7027 52.221 99.5605C52.1685 99.4183 52.1456 99.2668 52.1537 99.1154L52.4524 92.212C52.4699 91.8978 52.6061 91.602 52.8335 91.3846C53.0609 91.1671 53.3626 91.0443 53.6772 91.041H60.6075C60.7593 91.04 60.9096 91.07 61.0493 91.1291C61.189 91.1883 61.3152 91.2753 61.4201 91.385C61.525 91.4946 61.6064 91.6245 61.6593 91.7667C61.7122 91.9089 61.7355 92.0604 61.7277 92.212L61.4141 99.1154C61.3965 99.4322 61.2582 99.7301 61.0276 99.9479C60.7969 100.166 60.4916 100.287 60.1744 100.286V100.286Z" fill="#00A9F6"/>
<path d="M70.7163 100.286H63.8128C63.6611 100.287 63.5107 100.257 63.371 100.198C63.2313 100.139 63.1051 100.052 63.0002 99.9424C62.8954 99.8328 62.814 99.7029 62.7611 99.5607C62.7082 99.4185 62.6849 99.267 62.6926 99.1154L62.9913 92.212C63.008 91.8981 63.1436 91.6023 63.3706 91.3848C63.5975 91.1673 63.8988 91.0443 64.2131 91.041H71.1195C71.2711 91.0399 71.4214 91.0699 71.5609 91.1291C71.7005 91.1883 71.8265 91.2754 71.9311 91.3851C72.0358 91.4948 72.1169 91.6247 72.1694 91.7669C72.222 91.9091 72.2449 92.0606 72.2368 92.212L71.938 99.1154C71.9207 99.4291 71.7848 99.7245 71.558 99.9418C71.3313 100.159 71.0304 100.282 70.7163 100.286V100.286Z" fill="#00A9F6"/>
<path d="M81.258 100.286H74.3486C74.197 100.287 74.0468 100.257 73.9072 100.198C73.7676 100.139 73.6416 100.052 73.537 99.9423C73.4323 99.8326 73.3512 99.7027 73.2987 99.5605C73.2461 99.4183 73.2232 99.2668 73.2313 99.1154L73.5301 92.212C73.5482 91.898 73.6846 91.6027 73.9119 91.3854C74.1392 91.1681 74.4404 91.045 74.7548 91.041H81.6613C81.8129 91.0399 81.9631 91.0699 82.1026 91.1291C82.2422 91.1883 82.3682 91.2754 82.4729 91.3851C82.5775 91.4948 82.6586 91.6247 82.7112 91.7669C82.7637 91.9091 82.7866 92.0606 82.7785 92.212L82.4798 99.1154C82.4617 99.4288 82.3257 99.7238 82.099 99.941C81.8724 100.158 81.5719 100.282 81.258 100.286V100.286Z" fill="#00A9F6"/>
<path d="M91.7999 100.286H84.8935C84.7419 100.287 84.5917 100.257 84.4521 100.198C84.3125 100.139 84.1865 100.052 84.0819 99.9423C83.9772 99.8326 83.8961 99.7027 83.8436 99.5605C83.791 99.4183 83.7681 99.2668 83.7763 99.1154L84.075 92.212C84.0924 91.8978 84.2286 91.602 84.4561 91.3846C84.6835 91.1671 84.9851 91.0443 85.2997 91.041H92.2032C92.3549 91.04 92.5053 91.07 92.645 91.1291C92.7847 91.1883 92.9109 91.2753 93.0158 91.385C93.1207 91.4946 93.202 91.6245 93.2549 91.7667C93.3078 91.9089 93.3311 92.0604 93.3234 92.212L93.0098 99.1154C92.9932 99.4273 92.8593 99.7214 92.6349 99.9386C92.4105 100.156 92.1122 100.28 91.7999 100.286V100.286Z" fill="#00A9F6"/>
<g opacity="0.8">
<path d="M39.0996 100.286H32.1872C32.0356 100.288 31.8854 100.258 31.7458 100.198C31.6062 100.139 31.4802 100.052 31.3756 99.9424C31.2709 99.8327 31.1898 99.7027 31.1373 99.5605C31.0847 99.4183 31.0618 99.2669 31.07 99.1155L31.3687 92.212C31.3868 91.8981 31.5233 91.6027 31.7505 91.3854C31.9778 91.1681 32.279 91.0451 32.5935 91.041H39.4999C39.6515 91.04 39.8017 91.07 39.9413 91.1292C40.0809 91.1884 40.2068 91.2755 40.3115 91.3852C40.4161 91.4949 40.4972 91.6248 40.5498 91.767C40.6024 91.9092 40.6253 92.0606 40.6171 92.212L40.3184 99.1155C40.301 99.4286 40.1657 99.7236 39.9395 99.9409C39.7133 100.158 39.4132 100.282 39.0996 100.286V100.286Z" fill="#FAFAFA"/>
<path d="M49.6356 100.286H42.7292C42.5776 100.287 42.4274 100.257 42.2878 100.198C42.1482 100.139 42.0222 100.052 41.9176 99.9423C41.8129 99.8326 41.7318 99.7027 41.6793 99.5605C41.6267 99.4183 41.6038 99.2668 41.612 99.1154L41.9107 92.212C41.9281 91.8978 42.0643 91.602 42.2918 91.3846C42.5192 91.1671 42.8208 91.0443 43.1354 91.041H50.0389C50.1907 91.0395 50.3413 91.0692 50.4812 91.1282C50.6211 91.1872 50.7475 91.2743 50.8525 91.384C50.9574 91.4937 51.0388 91.6238 51.0915 91.7662C51.1443 91.9086 51.1673 92.0603 51.1591 92.212L50.8604 99.1154C50.8437 99.4298 50.7076 99.726 50.4801 99.9436C50.2525 100.161 49.9505 100.284 49.6356 100.286V100.286Z" fill="#FAFAFA"/>
<path d="M60.1744 100.286H53.2709C53.1193 100.287 52.9691 100.257 52.8295 100.198C52.69 100.139 52.564 100.052 52.4593 99.9423C52.3547 99.8326 52.2736 99.7027 52.221 99.5605C52.1685 99.4183 52.1456 99.2668 52.1537 99.1154L52.4524 92.212C52.4699 91.8978 52.6061 91.602 52.8335 91.3846C53.0609 91.1671 53.3626 91.0443 53.6772 91.041H60.6075C60.7593 91.04 60.9096 91.07 61.0493 91.1291C61.189 91.1883 61.3152 91.2753 61.4201 91.385C61.525 91.4946 61.6064 91.6245 61.6593 91.7667C61.7122 91.9089 61.7355 92.0604 61.7277 92.212L61.4141 99.1154C61.3965 99.4322 61.2582 99.7301 61.0276 99.9479C60.7969 100.166 60.4916 100.287 60.1744 100.286V100.286Z" fill="#FAFAFA"/>
<path d="M70.7163 100.286H63.8128C63.6611 100.287 63.5107 100.257 63.371 100.198C63.2313 100.139 63.1051 100.052 63.0002 99.9424C62.8954 99.8328 62.814 99.7029 62.7611 99.5607C62.7082 99.4185 62.6849 99.267 62.6926 99.1154L62.9913 92.212C63.008 91.8981 63.1436 91.6023 63.3706 91.3848C63.5975 91.1673 63.8988 91.0443 64.2131 91.041H71.1195C71.2711 91.0399 71.4214 91.0699 71.5609 91.1291C71.7005 91.1883 71.8265 91.2754 71.9311 91.3851C72.0358 91.4948 72.1169 91.6247 72.1694 91.7669C72.222 91.9091 72.2449 92.0606 72.2368 92.212L71.938 99.1154C71.9207 99.4291 71.7848 99.7245 71.558 99.9418C71.3313 100.159 71.0304 100.282 70.7163 100.286V100.286Z" fill="#FAFAFA"/>
<path d="M81.2582 100.286H74.3488C74.1972 100.287 74.047 100.257 73.9074 100.198C73.7678 100.139 73.6419 100.052 73.5372 99.9423C73.4326 99.8326 73.3515 99.7027 73.2989 99.5605C73.2463 99.4183 73.2234 99.2668 73.2316 99.1154L73.5303 92.212C73.5484 91.898 73.6849 91.6027 73.9122 91.3854C74.1394 91.1681 74.4406 91.045 74.7551 91.041H81.6615C81.8131 91.0399 81.9633 91.0699 82.1029 91.1291C82.2425 91.1883 82.3685 91.2754 82.4731 91.3851C82.5778 91.4948 82.6589 91.6247 82.7114 91.7669C82.764 91.9091 82.7869 92.0606 82.7787 92.212L82.48 99.1154C82.4619 99.4288 82.3259 99.7238 82.0993 99.941C81.8726 100.158 81.5721 100.282 81.2582 100.286V100.286Z" fill="#FAFAFA"/>
<path d="M91.8002 100.286H84.8937C84.7421 100.287 84.5919 100.257 84.4524 100.198C84.3128 100.139 84.1868 100.052 84.0821 99.9423C83.9775 99.8326 83.8964 99.7027 83.8438 99.5605C83.7913 99.4183 83.7684 99.2668 83.7765 99.1154L84.0752 92.212C84.0927 91.8978 84.2289 91.602 84.4563 91.3846C84.6838 91.1671 84.9854 91.0443 85.3 91.041H92.2034C92.3552 91.04 92.5055 91.07 92.6452 91.1291C92.785 91.1883 92.9111 91.2753 93.016 91.385C93.1209 91.4946 93.2023 91.6245 93.2552 91.7667C93.3081 91.9089 93.3314 92.0604 93.3237 92.212L93.01 99.1154C92.9935 99.4273 92.8595 99.7214 92.6351 99.9386C92.4107 100.156 92.1124 100.28 91.8002 100.286V100.286Z" fill="#FAFAFA"/>
</g>
<path d="M37.1429 64.0156C34.5978 64.0156 32.6023 61.0553 32.6023 57.2765C32.6023 53.4976 34.5978 50.5403 37.1429 50.5403C39.688 50.5403 41.6864 53.5006 41.6864 57.2765C41.6748 57.4536 41.5963 57.6196 41.4668 57.741C41.3372 57.8623 41.1664 57.9298 40.9889 57.9298C40.8114 57.9298 40.6406 57.8623 40.5111 57.741C40.3815 57.6196 40.303 57.4536 40.2914 57.2765C40.2914 54.3818 38.8516 51.9323 37.1429 51.9323C35.4342 51.9323 33.9943 54.3818 33.9943 57.2765C33.9943 60.1711 35.4372 62.6206 37.1429 62.6206C37.2383 62.6143 37.334 62.6277 37.4241 62.66C37.5141 62.6922 37.5966 62.7426 37.6664 62.8079C37.7362 62.8733 37.7918 62.9523 37.8299 63.0401C37.8679 63.1278 37.8875 63.2225 37.8875 63.3181C37.8875 63.4138 37.8679 63.5084 37.8299 63.5961C37.7918 63.6839 37.7362 63.7629 37.6664 63.8283C37.5966 63.8937 37.5141 63.944 37.4241 63.9762C37.334 64.0085 37.2383 64.0219 37.1429 64.0156V64.0156Z" fill="#00A9F6"/>
<path d="M47.6849 64.0156C45.1398 64.0156 43.1443 61.0553 43.1443 57.2765C43.1443 53.4976 45.1398 50.5403 47.6849 50.5403C50.23 50.5403 52.2434 53.5006 52.2434 57.2765C52.2318 57.4536 52.1532 57.6196 52.0237 57.741C51.8942 57.8623 51.7233 57.9298 51.5458 57.9298C51.3684 57.9298 51.1975 57.8623 51.068 57.741C50.9385 57.6196 50.8599 57.4536 50.8483 57.2765C50.8483 54.3818 49.4085 51.9323 47.6998 51.9323C45.9911 51.9323 44.5513 54.3818 44.5513 57.2765C44.5513 60.1711 45.9941 62.6206 47.6998 62.6206C47.8769 62.6322 48.043 62.7107 48.1643 62.8403C48.2856 62.9698 48.3531 63.1406 48.3531 63.3181C48.3531 63.4956 48.2856 63.6664 48.1643 63.796C48.043 63.9255 47.8769 64.004 47.6998 64.0156H47.6849Z" fill="#00A9F6"/>
<path d="M58.2179 64.0156C55.6698 64.0156 53.6743 61.0553 53.6743 57.2765C53.6743 53.4976 55.6698 50.5403 58.2179 50.5403C60.766 50.5403 62.7585 53.5006 62.7585 57.2765C62.7585 57.4611 62.6851 57.6381 62.5546 57.7686C62.4241 57.8991 62.247 57.9725 62.0624 57.9725C61.8778 57.9725 61.7008 57.8991 61.5703 57.7686C61.4397 57.6381 61.3664 57.4611 61.3664 57.2765C61.3664 54.3818 59.9236 51.9323 58.2179 51.9323C56.5122 51.9323 55.0694 54.3818 55.0694 57.2765C55.0694 60.1711 56.5122 62.6206 58.2179 62.6206C58.395 62.6322 58.561 62.7107 58.6824 62.8403C58.8037 62.9698 58.8712 63.1406 58.8712 63.3181C58.8712 63.4956 58.8037 63.6664 58.6824 63.796C58.561 63.9255 58.395 64.004 58.2179 64.0156V64.0156Z" fill="#00A9F6"/>
<path d="M68.7684 64.0156C66.2203 64.0156 64.2249 61.0553 64.2249 57.2765C64.2249 53.4976 66.2203 50.5403 68.7684 50.5403C71.3165 50.5403 73.309 53.5006 73.309 57.2765C73.309 57.4611 73.2357 57.6381 73.1051 57.7686C72.9746 57.8991 72.7976 57.9725 72.613 57.9725C72.4284 57.9725 72.2513 57.8991 72.1208 57.7686C71.9903 57.6381 71.9169 57.4611 71.9169 57.2765C71.9169 54.3818 70.4741 51.9323 68.7684 51.9323C67.0627 51.9323 65.6199 54.3818 65.6199 57.2765C65.6199 60.1711 67.0597 62.6206 68.7684 62.6206C68.9455 62.6322 69.1116 62.7107 69.2329 62.8403C69.3542 62.9698 69.4218 63.1406 69.4218 63.3181C69.4218 63.4956 69.3542 63.6664 69.2329 63.796C69.1116 63.9255 68.9455 64.004 68.7684 64.0156V64.0156Z" fill="#00A9F6"/>
<path d="M79.3074 64.0156C76.7623 64.0156 74.7668 61.0553 74.7668 57.2765C74.7668 53.4976 76.7623 50.5403 79.3074 50.5403C81.8525 50.5403 83.851 53.5006 83.851 57.2765C83.8394 57.4536 83.7609 57.6196 83.6313 57.741C83.5018 57.8623 83.3309 57.9298 83.1535 57.9298C82.976 57.9298 82.8051 57.8623 82.6756 57.741C82.5461 57.6196 82.4675 57.4536 82.4559 57.2765C82.4559 54.3818 81.0161 51.9323 79.3074 51.9323C77.5987 51.9323 76.1589 54.3818 76.1589 57.2765C76.1589 60.1711 77.6017 62.6206 79.3074 62.6206C79.4029 62.6143 79.4986 62.6277 79.5886 62.66C79.6787 62.6922 79.7611 62.7426 79.8309 62.8079C79.9007 62.8733 79.9564 62.9523 79.9944 63.0401C80.0325 63.1278 80.0521 63.2225 80.0521 63.3181C80.0521 63.4138 80.0325 63.5084 79.9944 63.5961C79.9564 63.6839 79.9007 63.7629 79.8309 63.8283C79.7611 63.8937 79.6787 63.944 79.5886 63.9762C79.4986 64.0085 79.4029 64.0219 79.3074 64.0156V64.0156Z" fill="#00A9F6"/>
<path d="M89.8492 64.0156C87.3041 64.0156 85.3086 61.0553 85.3086 57.2765C85.3086 53.4976 87.3041 50.5403 89.8492 50.5403C92.3943 50.5403 94.3927 53.5006 94.3927 57.2765C94.3811 57.4536 94.3026 57.6196 94.1731 57.741C94.0435 57.8623 93.8727 57.9298 93.6952 57.9298C93.5177 57.9298 93.3469 57.8623 93.2174 57.741C93.0878 57.6196 93.0093 57.4536 92.9977 57.2765C92.9977 54.3818 91.5549 51.9323 89.8492 51.9323C88.1435 51.9323 86.7006 54.3818 86.7006 57.2765C86.7006 60.1711 88.1435 62.6206 89.8492 62.6206C90.0263 62.6322 90.1923 62.7107 90.3137 62.8403C90.435 62.9698 90.5025 63.1406 90.5025 63.3181C90.5025 63.4956 90.435 63.6664 90.3137 63.796C90.1923 63.9255 90.0263 64.004 89.8492 64.0156V64.0156Z" fill="#00A9F6"/>
<g opacity="0.3">
<path d="M37.1429 64.0156C34.5978 64.0156 32.6023 61.0553 32.6023 57.2765C32.6023 53.4976 34.5978 50.5403 37.1429 50.5403C39.688 50.5403 41.6864 53.5006 41.6864 57.2765C41.6748 57.4536 41.5963 57.6196 41.4668 57.741C41.3372 57.8623 41.1664 57.9298 40.9889 57.9298C40.8114 57.9298 40.6406 57.8623 40.5111 57.741C40.3815 57.6196 40.303 57.4536 40.2914 57.2765C40.2914 54.3818 38.8516 51.9323 37.1429 51.9323C35.4342 51.9323 33.9943 54.3818 33.9943 57.2765C33.9943 60.1711 35.4372 62.6206 37.1429 62.6206C37.2383 62.6143 37.334 62.6277 37.4241 62.66C37.5141 62.6922 37.5966 62.7426 37.6664 62.8079C37.7362 62.8733 37.7918 62.9523 37.8299 63.0401C37.8679 63.1278 37.8875 63.2225 37.8875 63.3181C37.8875 63.4138 37.8679 63.5084 37.8299 63.5961C37.7918 63.6839 37.7362 63.7629 37.6664 63.8283C37.5966 63.8937 37.5141 63.944 37.4241 63.9762C37.334 64.0085 37.2383 64.0219 37.1429 64.0156V64.0156Z" fill="black"/>
<path d="M47.6849 64.0156C45.1398 64.0156 43.1443 61.0553 43.1443 57.2765C43.1443 53.4976 45.1398 50.5403 47.6849 50.5403C50.23 50.5403 52.2434 53.5006 52.2434 57.2765C52.2318 57.4536 52.1532 57.6196 52.0237 57.741C51.8942 57.8623 51.7233 57.9298 51.5458 57.9298C51.3684 57.9298 51.1975 57.8623 51.068 57.741C50.9385 57.6196 50.8599 57.4536 50.8483 57.2765C50.8483 54.3818 49.4085 51.9323 47.6998 51.9323C45.9911 51.9323 44.5513 54.3818 44.5513 57.2765C44.5513 60.1711 45.9941 62.6206 47.6998 62.6206C47.8769 62.6322 48.043 62.7107 48.1643 62.8403C48.2856 62.9698 48.3531 63.1406 48.3531 63.3181C48.3531 63.4956 48.2856 63.6664 48.1643 63.796C48.043 63.9255 47.8769 64.004 47.6998 64.0156H47.6849Z" fill="black"/>
<path d="M58.2176 64.0156C55.6695 64.0156 53.6741 61.0553 53.6741 57.2765C53.6741 53.4976 55.6695 50.5403 58.2176 50.5403C60.7657 50.5403 62.7582 53.5006 62.7582 57.2765C62.7582 57.4611 62.6849 57.6381 62.5543 57.7686C62.4238 57.8991 62.2468 57.9725 62.0622 57.9725C61.8776 57.9725 61.7005 57.8991 61.57 57.7686C61.4395 57.6381 61.3662 57.4611 61.3662 57.2765C61.3662 54.3818 59.9233 51.9323 58.2176 51.9323C56.5119 51.9323 55.0691 54.3818 55.0691 57.2765C55.0691 60.1711 56.5119 62.6206 58.2176 62.6206C58.3947 62.6322 58.5608 62.7107 58.6821 62.8403C58.8035 62.9698 58.871 63.1406 58.871 63.3181C58.871 63.4956 58.8035 63.6664 58.6821 63.796C58.5608 63.9255 58.3947 64.004 58.2176 64.0156V64.0156Z" fill="black"/>
<path d="M68.7687 64.0156C66.2206 64.0156 64.2251 61.0553 64.2251 57.2765C64.2251 53.4976 66.2206 50.5403 68.7687 50.5403C71.3168 50.5403 73.3092 53.5006 73.3092 57.2765C73.3092 57.4611 73.2359 57.6381 73.1054 57.7686C72.9748 57.8991 72.7978 57.9725 72.6132 57.9725C72.4286 57.9725 72.2516 57.8991 72.121 57.7686C71.9905 57.6381 71.9172 57.4611 71.9172 57.2765C71.9172 54.3818 70.4744 51.9323 68.7687 51.9323C67.063 51.9323 65.6201 54.3818 65.6201 57.2765C65.6201 60.1711 67.06 62.6206 68.7687 62.6206C68.9458 62.6322 69.1118 62.7107 69.2332 62.8403C69.3545 62.9698 69.422 63.1406 69.422 63.3181C69.422 63.4956 69.3545 63.6664 69.2332 63.796C69.1118 63.9255 68.9458 64.004 68.7687 64.0156V64.0156Z" fill="black"/>
<path d="M79.3077 64.0156C76.7626 64.0156 74.7671 61.0553 74.7671 57.2765C74.7671 53.4976 76.7626 50.5403 79.3077 50.5403C81.8528 50.5403 83.8512 53.5006 83.8512 57.2765C83.8396 57.4536 83.7611 57.6196 83.6316 57.741C83.502 57.8623 83.3312 57.9298 83.1537 57.9298C82.9762 57.9298 82.8054 57.8623 82.6758 57.741C82.5463 57.6196 82.4678 57.4536 82.4562 57.2765C82.4562 54.3818 81.0164 51.9323 79.3077 51.9323C77.599 51.9323 76.1591 54.3818 76.1591 57.2765C76.1591 60.1711 77.602 62.6206 79.3077 62.6206C79.4031 62.6143 79.4988 62.6277 79.5889 62.66C79.6789 62.6922 79.7614 62.7426 79.8312 62.8079C79.901 62.8733 79.9566 62.9523 79.9947 63.0401C80.0327 63.1278 80.0523 63.2225 80.0523 63.3181C80.0523 63.4138 80.0327 63.5084 79.9947 63.5961C79.9566 63.6839 79.901 63.7629 79.8312 63.8283C79.7614 63.8937 79.6789 63.944 79.5889 63.9762C79.4988 64.0085 79.4031 64.0219 79.3077 64.0156V64.0156Z" fill="black"/>
<path d="M89.8494 64.0156C87.3043 64.0156 85.3088 61.0553 85.3088 57.2765C85.3088 53.4976 87.3043 50.5403 89.8494 50.5403C92.3945 50.5403 94.393 53.5006 94.393 57.2765C94.3814 57.4536 94.3028 57.6196 94.1733 57.741C94.0438 57.8623 93.8729 57.9298 93.6955 57.9298C93.518 57.9298 93.3471 57.8623 93.2176 57.741C93.0881 57.6196 93.0095 57.4536 92.9979 57.2765C92.9979 54.3818 91.5551 51.9323 89.8494 51.9323C88.1437 51.9323 86.7009 54.3818 86.7009 57.2765C86.7009 60.1711 88.1437 62.6206 89.8494 62.6206C90.0265 62.6322 90.1926 62.7107 90.3139 62.8403C90.4352 62.9698 90.5027 63.1406 90.5027 63.3181C90.5027 63.4956 90.4352 63.6664 90.3139 63.796C90.1926 63.9255 90.0265 64.004 89.8494 64.0156V64.0156Z" fill="black"/>
</g>
<path d="M69.4736 79.2445C67.0361 78.7606 64.2998 79.3251 63.3229 81.8942C62.5373 83.9613 63.544 86.2017 65.7127 86.7484C67.6245 87.2293 70.9224 86.6408 71.6035 84.4363C72.3832 81.9151 69.2137 81.0966 67.4363 80.9472C66.9016 80.9024 66.9046 81.7388 67.4363 81.7836C68.2459 81.8523 69.1719 81.8971 69.8889 82.3422C71.3825 83.2772 70.7671 84.7768 69.4945 85.4937C68.222 86.2107 66.2713 86.3899 65.0137 85.5953C63.6396 84.7201 63.5948 82.7963 64.4163 81.5417C65.4947 79.8838 67.4632 79.6985 69.2376 80.048C69.7634 80.1526 69.9874 79.3461 69.4587 79.2415L69.4736 79.2445Z" fill="#00A9F6"/>
<path opacity="0.1" d="M69.4736 79.2445C67.0361 78.7606 64.2998 79.3251 63.3229 81.8942C62.5373 83.9613 63.544 86.2017 65.7127 86.7484C67.6245 87.2293 70.9224 86.6408 71.6035 84.4363C72.3832 81.9151 69.2137 81.0966 67.4363 80.9472C66.9016 80.9024 66.9046 81.7388 67.4363 81.7836C68.2459 81.8523 69.1719 81.8971 69.8889 82.3422C71.3825 83.2772 70.7671 84.7768 69.4945 85.4937C68.222 86.2107 66.2713 86.3899 65.0137 85.5953C63.6396 84.7201 63.5948 82.7963 64.4163 81.5417C65.4947 79.8838 67.4632 79.6985 69.2376 80.048C69.7634 80.1526 69.9874 79.3461 69.4587 79.2415L69.4736 79.2445Z" fill="#FAFAFA"/>
<path d="M42.5796 69.6226C44.9108 72.713 47.5097 75.5918 50.3464 78.2258C50.7407 78.5933 51.3351 78.0018 50.9438 77.6284C48.1558 75.0464 45.5998 72.2246 43.3055 69.1955C42.9859 68.7713 42.26 69.1955 42.5856 69.6167L42.5796 69.6226Z" fill="#00A9F6"/>
<path d="M43.443 77.8764C45.2055 74.7428 48.2913 72.0692 51.2098 70.023C51.6459 69.7242 51.2307 68.9894 50.7886 69.3001C47.7536 71.4329 44.5633 74.1871 42.7231 77.4522C42.6726 77.5473 42.6608 77.6582 42.6901 77.7619C42.7193 77.8655 42.7874 77.9539 42.8802 78.0086C42.973 78.0632 43.0833 78.08 43.1882 78.0554C43.293 78.0307 43.3843 77.9666 43.443 77.8764V77.8764Z" fill="#00A9F6"/>
<g opacity="0.2">
<path d="M42.5796 69.6226C44.9108 72.713 47.5097 75.5918 50.3464 78.2258C50.7407 78.5933 51.3351 78.0018 50.9438 77.6284C48.1558 75.0464 45.5998 72.2246 43.3055 69.1955C42.9859 68.7713 42.26 69.1955 42.5856 69.6167L42.5796 69.6226Z" fill="black"/>
<path d="M43.4428 77.8763C45.2053 74.7427 48.2911 72.0692 51.2096 70.0229C51.6457 69.7242 51.2305 68.9894 50.7884 69.3C47.7534 71.4329 44.563 74.1871 42.7229 77.4521C42.6724 77.5473 42.6605 77.6582 42.6898 77.7619C42.7191 77.8655 42.7872 77.9539 42.88 78.0085C42.9728 78.0632 43.0831 78.08 43.1879 78.0553C43.2928 78.0307 43.3841 77.9666 43.4428 77.8763V77.8763Z" fill="black"/>
</g>
<path d="M75.8035 72.2962H81.2552C81.3596 72.2874 81.4569 72.2396 81.5279 72.1624C81.5988 72.0853 81.6381 71.9843 81.6381 71.8795C81.6381 71.7747 81.5988 71.6737 81.5279 71.5965C81.4569 71.5194 81.3596 71.4716 81.2552 71.4628H75.8035C75.6991 71.4716 75.6018 71.5194 75.5309 71.5965C75.46 71.6737 75.4207 71.7747 75.4207 71.8795C75.4207 71.9843 75.46 72.0853 75.5309 72.1624C75.6018 72.2396 75.6991 72.2874 75.8035 72.2962Z" fill="#00A9F6"/>
<path d="M75.7407 73.8466H78.9012C79.0121 73.8466 79.1185 73.8025 79.1969 73.7241C79.2753 73.6456 79.3194 73.5393 79.3194 73.4283C79.3194 73.3174 79.2753 73.2111 79.1969 73.1326C79.1185 73.0542 79.0121 73.0101 78.9012 73.0101H75.7407C75.6298 73.0101 75.5234 73.0542 75.445 73.1326C75.3666 73.2111 75.3225 73.3174 75.3225 73.4283C75.3225 73.5393 75.3666 73.6456 75.445 73.7241C75.5234 73.8025 75.6298 73.8466 75.7407 73.8466V73.8466Z" fill="#00A9F6"/>
<g opacity="0.1">
<path d="M75.8035 72.2962H81.2552C81.3596 72.2874 81.4569 72.2396 81.5279 72.1624C81.5988 72.0853 81.6381 71.9843 81.6381 71.8795C81.6381 71.7747 81.5988 71.6737 81.5279 71.5965C81.4569 71.5194 81.3596 71.4716 81.2552 71.4628H75.8035C75.6991 71.4716 75.6018 71.5194 75.5309 71.5965C75.46 71.6737 75.4207 71.7747 75.4207 71.8795C75.4207 71.9843 75.46 72.0853 75.5309 72.1624C75.6018 72.2396 75.6991 72.2874 75.8035 72.2962Z" fill="#FAFAFA"/>
<path d="M75.7407 73.8466H78.9012C79.0121 73.8466 79.1185 73.8025 79.1969 73.7241C79.2753 73.6457 79.3194 73.5393 79.3194 73.4284C79.3194 73.3175 79.2753 73.2111 79.1969 73.1327C79.1185 73.0542 79.0121 73.0102 78.9012 73.0102H75.7407C75.6298 73.0102 75.5234 73.0542 75.445 73.1327C75.3666 73.2111 75.3225 73.3175 75.3225 73.4284C75.3225 73.5393 75.3666 73.6457 75.445 73.7241C75.5234 73.8025 75.6298 73.8466 75.7407 73.8466V73.8466Z" fill="#FAFAFA"/>
</g>
<path d="M43.1501 93.6966H47.8251C47.9361 93.6966 48.0424 93.6525 48.1209 93.5741C48.1993 93.4957 48.2433 93.3893 48.2433 93.2784C48.2433 93.1675 48.1993 93.0611 48.1209 92.9827C48.0424 92.9042 47.9361 92.8602 47.8251 92.8602H43.1501C43.0392 92.8602 42.9329 92.9042 42.8544 92.9827C42.776 93.0611 42.7319 93.1675 42.7319 93.2784C42.7319 93.3893 42.776 93.4957 42.8544 93.5741C42.9329 93.6525 43.0392 93.6966 43.1501 93.6966Z" fill="#00A9F6"/>
<path d="M42.9829 95.4919H49.047C49.1579 95.4919 49.2642 95.4478 49.3427 95.3694C49.4211 95.291 49.4652 95.1846 49.4652 95.0737C49.4652 94.9628 49.4211 94.8564 49.3427 94.778C49.2642 94.6995 49.1579 94.6555 49.047 94.6555H42.9829C42.872 94.6555 42.7656 94.6995 42.6872 94.778C42.6088 94.8564 42.5647 94.9628 42.5647 95.0737C42.5647 95.1846 42.6088 95.291 42.6872 95.3694C42.7656 95.4478 42.872 95.4919 42.9829 95.4919V95.4919Z" fill="#00A9F6"/>
<path d="M42.9829 97.341H46.0149C46.1258 97.341 46.2322 97.297 46.3107 97.2185C46.3891 97.1401 46.4331 97.0337 46.4331 96.9228C46.4331 96.8119 46.3891 96.7055 46.3107 96.6271C46.2322 96.5487 46.1258 96.5046 46.0149 96.5046H42.9829C42.872 96.5046 42.7656 96.5487 42.6872 96.6271C42.6088 96.7055 42.5647 96.8119 42.5647 96.9228C42.5647 97.0337 42.6088 97.1401 42.6872 97.2185C42.7656 97.297 42.872 97.341 42.9829 97.341V97.341Z" fill="#00A9F6"/>
<g opacity="0.1">
<path d="M43.1504 93.6966H47.8254C47.9363 93.6966 48.0427 93.6525 48.1211 93.5741C48.1995 93.4957 48.2436 93.3893 48.2436 93.2784C48.2436 93.1675 48.1995 93.0611 48.1211 92.9827C48.0427 92.9042 47.9363 92.8602 47.8254 92.8602H43.1504C43.0395 92.8602 42.9331 92.9042 42.8547 92.9827C42.7762 93.0611 42.7322 93.1675 42.7322 93.2784C42.7322 93.3893 42.7762 93.4957 42.8547 93.5741C42.9331 93.6525 43.0395 93.6966 43.1504 93.6966Z" fill="#FAFAFA"/>
<path d="M42.9829 95.4919H49.047C49.1579 95.4919 49.2642 95.4478 49.3427 95.3694C49.4211 95.291 49.4652 95.1846 49.4652 95.0737C49.4652 94.9628 49.4211 94.8564 49.3427 94.778C49.2642 94.6995 49.1579 94.6555 49.047 94.6555H42.9829C42.872 94.6555 42.7656 94.6995 42.6872 94.778C42.6088 94.8564 42.5647 94.9628 42.5647 95.0737C42.5647 95.1846 42.6088 95.291 42.6872 95.3694C42.7656 95.4478 42.872 95.4919 42.9829 95.4919V95.4919Z" fill="#FAFAFA"/>
<path d="M42.9829 97.341H46.0149C46.1258 97.341 46.2322 97.2969 46.3107 97.2185C46.3891 97.1401 46.4331 97.0337 46.4331 96.9228C46.4331 96.8119 46.3891 96.7055 46.3107 96.6271C46.2322 96.5486 46.1258 96.5046 46.0149 96.5046H42.9829C42.872 96.5046 42.7656 96.5486 42.6872 96.6271C42.6088 96.7055 42.5647 96.8119 42.5647 96.9228C42.5647 97.0337 42.6088 97.1401 42.6872 97.2185C42.7656 97.2969 42.872 97.341 42.9829 97.341V97.341Z" fill="#FAFAFA"/>
</g>
<path d="M10.1805 46.7943L11.5935 46.7316L10.9542 49.4201C10.4499 49.0748 9.99039 48.6685 9.58606 48.2102C9.46945 48.0731 9.41158 47.8956 9.425 47.7161C9.43842 47.5366 9.52205 47.3696 9.65775 47.2513L10.1805 46.7943Z" fill="#E4897B"/>
<path d="M13.2334 48.1804L12.6001 50.367L10.9541 49.4141L11.5934 46.7316L13.2334 48.1804Z" fill="#E4897B"/>
<path d="M12.9549 35.1991L10.0637 35.4668L16.6948 107.084L19.586 106.816L12.9549 35.1991Z" fill="#00A9F6"/>
<path opacity="0.3" d="M12.9549 35.1991L10.0637 35.4668L16.6948 107.084L19.586 106.816L12.9549 35.1991Z" fill="black"/>
<path d="M18.7384 34.6622L15.8472 34.9299L22.4783 106.547L25.3695 106.279L18.7384 34.6622Z" fill="#00A9F6"/>
<path opacity="0.3" d="M18.7384 34.6622L15.8472 34.9299L22.4783 106.547L25.3695 106.279L18.7384 34.6622Z" fill="black"/>
<path d="M15.8482 34.9307L12.957 35.1984L19.5881 106.815L22.4793 106.548L15.8482 34.9307Z" fill="#00A9F6"/>
<path opacity="0.1" d="M15.8482 34.9307L12.957 35.1984L19.5881 106.815L22.4793 106.548L15.8482 34.9307Z" fill="black"/>
<path d="M15.2378 29.9225L12.636 30.1644L10.064 35.4668L18.7388 34.6632L15.2378 29.9225Z" fill="#00A9F6"/>
<g opacity="0.8">
<path d="M15.2378 29.9225L12.636 30.1644L10.064 35.4668L18.7388 34.6632L15.2378 29.9225Z" fill="#FAFAFA"/>
</g>
<path d="M13.7383 27.8912L12.636 30.1644L15.2379 29.9225L13.7383 27.8912Z" fill="#263238"/>
<path d="M35.5986 31.9389C35.8973 32.2376 36.1453 32.5214 36.4022 32.8351C36.6591 33.1487 36.904 33.4325 37.149 33.7312C37.6419 34.3287 38.1019 34.959 38.55 35.6012C39.4737 36.9071 40.2529 38.3093 40.874 39.7833C40.9487 39.9745 41.0174 40.1747 41.0891 40.3808L41.1967 40.6795C41.2559 40.8583 41.2979 41.0424 41.3221 41.2292C41.387 41.8236 41.3081 42.425 41.0921 42.9826C40.7697 43.8058 40.3179 44.5722 39.7538 45.2529C38.7565 46.4736 37.6082 47.5627 36.3365 48.4941L35.2103 47.2992C36.0966 46.1912 36.907 45.0245 37.6359 43.8071C37.9552 43.287 38.2005 42.725 38.3648 42.1373C38.4102 41.993 38.4154 41.8391 38.3797 41.6922L38.2781 41.4711C38.2094 41.3247 38.1497 41.1724 38.075 41.029C37.4427 39.802 36.703 38.6334 35.8645 37.537C35.4463 36.9664 35.0042 36.4108 34.5561 35.8551C34.332 35.5803 34.105 35.3055 33.872 35.0366L33.1909 34.251L35.5986 31.9389Z" fill="#E4897B"/>
<path d="M33.4031 48.2102L34.6756 50.7285L35.9213 49.656L34.8997 47.8667L33.4031 48.2102Z" fill="#E4897B"/>
<path d="M23.8172 33.4146C23.0425 34.8903 22.2379 36.349 21.4035 37.7908C20.9943 38.5167 20.5641 39.2307 20.1459 39.9506L19.5036 41.026L19.3423 41.2949C19.2617 41.4233 19.1721 41.5756 19.0914 41.6772C19.0108 41.7788 18.9301 41.9013 18.8524 41.9939C18.7748 42.0865 18.6911 42.191 18.6135 42.2776C18.01 42.935 17.3676 43.5555 16.6897 44.1357C16.0355 44.6943 15.3813 45.238 14.7062 45.7548C13.3709 46.7973 11.9998 47.7681 10.5778 48.6942L9.55322 47.4037L13.0931 43.9176C13.6726 43.3202 14.2581 42.7586 14.8107 42.1671C15.3537 41.6105 15.8653 41.0241 16.3432 40.4106C16.4009 40.3389 16.4517 40.2702 16.4955 40.2045C16.5463 40.1328 16.5821 40.0731 16.618 40.0133C16.6489 39.9653 16.6768 39.9154 16.7016 39.864L16.839 39.5862L17.3917 38.46C17.7711 37.7162 18.1415 36.9664 18.5268 36.2285C19.2896 34.7409 20.0862 33.2702 20.9166 31.8164L23.8172 33.4146Z" fill="#E4897B"/>
<path d="M32.2022 23.3237C32.1634 23.497 32.2261 23.6613 32.3366 23.6912C32.4472 23.721 32.5696 23.6015 32.6085 23.4283C32.6473 23.255 32.5816 23.0907 32.4711 23.0609C32.3605 23.031 32.2291 23.1505 32.2022 23.3237Z" fill="#263238"/>
<path d="M32.2083 23.6583C32.3019 24.241 32.4727 24.8086 32.7162 25.3461C32.5787 25.4005 32.431 25.4242 32.2834 25.4154C32.1358 25.4066 31.9919 25.3656 31.8618 25.2953L32.2083 23.6583Z" fill="#DE5753"/>
<path d="M32.6594 22.2722C32.6382 22.2723 32.6174 22.2661 32.5997 22.2543C32.4893 22.1869 32.3642 22.1473 32.2352 22.139C32.1061 22.1307 31.977 22.1538 31.8589 22.2065C31.8331 22.2166 31.8044 22.2163 31.7788 22.2057C31.7532 22.1951 31.7326 22.1751 31.7214 22.1498C31.7114 22.124 31.7117 22.0953 31.7223 22.0697C31.7328 22.0441 31.7529 22.0235 31.7782 22.0124C31.9292 21.9475 32.0936 21.9202 32.2575 21.9327C32.4213 21.9451 32.5797 21.9971 32.7192 22.0841C32.7305 22.0916 32.7403 22.1013 32.7478 22.1126C32.7553 22.1239 32.7605 22.1367 32.763 22.15C32.7655 22.1634 32.7653 22.1772 32.7624 22.1905C32.7595 22.2038 32.7539 22.2163 32.7461 22.2274C32.7364 22.2414 32.7234 22.2528 32.7083 22.2606C32.6932 22.2684 32.6764 22.2724 32.6594 22.2722V22.2722Z" fill="#263238"/>
<path d="M26.1592 23.9839C26.5355 25.591 26.9627 28.5305 25.8813 29.6029C25.8813 29.6029 26.3832 31.2309 29.3674 31.2309C32.6534 31.2309 30.861 29.6029 30.861 29.6029C29.0538 29.1757 29.0478 27.8464 29.3107 26.6007L26.1592 23.9839Z" fill="#E4897B"/>
<path d="M25.475 30.1615C25.2181 29.6477 24.9373 29.0562 25.475 28.871C26.0545 28.6679 29.2717 28.4618 30.3979 28.8411C30.698 28.9214 30.955 29.1154 31.1145 29.3819C31.274 29.6485 31.3234 29.9667 31.2523 30.269L25.475 30.1615Z" fill="#00A9F6"/>
<path opacity="0.6" d="M25.475 30.1615C25.2181 29.6477 24.9373 29.0562 25.475 28.871C26.0545 28.6679 29.2717 28.4618 30.3979 28.8411C30.698 28.9214 30.955 29.1154 31.1145 29.3819C31.274 29.6485 31.3234 29.9667 31.2523 30.269L25.475 30.1615Z" fill="#FAFAFA"/>
<path d="M21.1764 105.108C20.9836 105.107 20.7913 105.086 20.6028 105.045C20.5932 105.043 20.5842 105.039 20.5773 105.032C20.5703 105.025 20.5657 105.016 20.564 105.006C20.562 104.996 20.5629 104.986 20.5666 104.976C20.5703 104.967 20.5767 104.959 20.5849 104.952C20.6088 104.935 21.1824 104.522 21.5169 104.594C21.5531 104.6 21.5874 104.615 21.6173 104.636C21.6473 104.657 21.6722 104.685 21.6902 104.716C21.7171 104.752 21.7316 104.796 21.7316 104.84C21.7316 104.885 21.7171 104.929 21.6902 104.964C21.6185 105.081 21.4004 105.108 21.1764 105.108ZM20.7492 104.97C21.0778 105.024 21.5259 105.024 21.6155 104.902C21.6155 104.902 21.6514 104.854 21.6006 104.767C21.5896 104.748 21.5746 104.732 21.5565 104.72C21.5384 104.707 21.5177 104.699 21.496 104.696C21.2248 104.713 20.9648 104.811 20.7492 104.976V104.97Z" fill="#FAFAFA"/>
<path d="M20.6149 105.054H20.588C20.5802 105.05 20.5738 105.043 20.5696 105.035C20.5654 105.027 20.5635 105.018 20.5641 105.009C20.5641 104.982 20.591 104.349 20.8389 104.14C20.8686 104.113 20.9038 104.093 20.9419 104.081C20.9801 104.07 21.0203 104.066 21.06 104.071C21.1002 104.071 21.1393 104.085 21.1703 104.111C21.2014 104.136 21.2226 104.172 21.2302 104.212C21.278 104.457 20.8598 104.935 20.6328 105.057L20.6149 105.054ZM21.0241 104.158C20.9812 104.158 20.9398 104.174 20.9076 104.203C20.7611 104.403 20.6797 104.644 20.6746 104.893C20.8897 104.722 21.1556 104.361 21.1287 104.218C21.1287 104.203 21.1287 104.167 21.048 104.158H21.0241Z" fill="#FAFAFA"/>
<path d="M34.3563 105.108C34.1298 105.108 33.9038 105.087 33.6812 105.045C33.6707 105.043 33.6611 105.038 33.6536 105.031C33.6461 105.023 33.6411 105.014 33.6394 105.003C33.6377 104.993 33.6391 104.982 33.6433 104.973C33.6476 104.963 33.6545 104.955 33.6633 104.949C33.7738 104.887 34.7476 104.328 34.9836 104.713C35.0073 104.747 35.02 104.787 35.02 104.828C35.02 104.87 35.0073 104.91 34.9836 104.944C34.9179 105.075 34.6371 105.108 34.3563 105.108ZM33.8455 104.967C34.2577 105.027 34.8133 105.018 34.9089 104.884C34.9089 104.884 34.9388 104.842 34.894 104.767C34.7626 104.555 34.1711 104.809 33.8455 104.973V104.967Z" fill="#FAFAFA"/>
<path d="M33.6901 105.054C33.6803 105.057 33.67 105.057 33.6602 105.054C33.6528 105.049 33.6469 105.041 33.6432 105.033C33.6395 105.025 33.6382 105.015 33.6393 105.006C33.6393 104.982 33.6752 104.391 33.938 104.161C33.9779 104.124 34.0254 104.097 34.0772 104.082C34.1289 104.066 34.1834 104.063 34.2368 104.071C34.3831 104.086 34.425 104.161 34.4339 104.221C34.4757 104.475 33.9769 104.938 33.714 105.057L33.6901 105.054ZM34.192 104.158C34.1256 104.157 34.0615 104.182 34.0127 104.227C33.8557 104.419 33.7646 104.657 33.7528 104.905C34.0157 104.743 34.3503 104.376 34.3294 104.224C34.3294 104.209 34.3294 104.17 34.2218 104.158H34.192Z" fill="#FAFAFA"/>
<path d="M31.2764 105H33.472L33.4929 99.9189H31.3003L31.2764 105Z" fill="#E4897B"/>
<path d="M18.0996 105H20.2952L21.2033 99.9189H19.0077L18.0996 105Z" fill="#E4897B"/>
<path d="M20.4416 104.746H17.9771C17.9336 104.746 17.8912 104.761 17.8578 104.789C17.8244 104.817 17.8021 104.856 17.7949 104.899L17.4365 106.849C17.4291 106.898 17.4323 106.947 17.446 106.994C17.4596 107.041 17.4833 107.085 17.5154 107.122C17.5475 107.159 17.5873 107.188 17.6319 107.208C17.6766 107.228 17.7251 107.238 17.774 107.238C18.6343 107.223 19.0496 107.172 20.1339 107.172C20.8001 107.172 22.1772 107.244 23.1002 107.244C24.0233 107.244 24.1039 106.347 23.7246 106.249C22.0189 105.878 21.3617 105.368 20.8031 104.884C20.7033 104.795 20.5748 104.747 20.4416 104.746V104.746Z" fill="#263238"/>
<path d="M33.4481 104.746H31.0583C31.0147 104.746 30.9724 104.761 30.9389 104.789C30.9055 104.817 30.8832 104.856 30.8761 104.899L30.5176 106.849C30.5092 106.897 30.5116 106.947 30.5245 106.994C30.5373 107.041 30.5604 107.084 30.5921 107.121C30.6238 107.159 30.6632 107.188 30.7077 107.208C30.7521 107.228 30.8004 107.238 30.8492 107.238C31.7125 107.223 32.9582 107.172 34.0455 107.172C35.3181 107.172 36.4173 107.244 37.908 107.244C38.8041 107.244 39.0222 106.347 38.6428 106.249C36.9102 105.873 35.5062 105.834 33.9887 104.92C33.8282 104.812 33.6409 104.752 33.4481 104.746V104.746Z" fill="#263238"/>
<path d="M21.6963 30.0987C19.656 30.5707 17.5142 36.1777 17.5142 36.1777L21.753 39.0096C22.7262 37.534 23.5793 35.9826 24.3041 34.3704C25.4243 31.8044 23.7784 29.6178 21.6963 30.0987Z" fill="#00A9F6"/>
<path opacity="0.7" d="M21.6963 30.0987C19.656 30.5707 17.5142 36.1777 17.5142 36.1777L21.753 39.0096C22.7262 37.534 23.5793 35.9826 24.3041 34.3704C25.4243 31.8044 23.7784 29.6178 21.6963 30.0987Z" fill="black"/>
<path d="M23.3065 33.6744L21.553 38.8752L21.7531 39.0096C21.7531 39.0096 22.5537 37.8147 23.4051 36.2225L23.3065 33.6744Z" fill="#00A9F6"/>
<path opacity="0.8" d="M23.3065 33.6744L21.553 38.8752L21.7531 39.0096C21.7531 39.0096 22.5537 37.8147 23.4051 36.2225L23.3065 33.6744Z" fill="black"/>
<path d="M35.3865 39.9028C35.3685 42.3523 35.2222 45.3993 34.8577 49.1811H23.118C22.9656 47.3888 23.7602 38.5884 21.696 30.0987C22.9873 29.8485 24.2935 29.6828 25.6063 29.6029C27.2678 29.5072 28.9335 29.5072 30.595 29.6029C31.7408 29.7143 32.8763 29.914 33.9914 30.2003C33.9914 30.2003 34.9951 31.2877 35.2998 36.3868C35.3596 37.4055 35.3924 38.5645 35.3865 39.9028Z" fill="#00A9F6"/>
<path opacity="0.7" d="M35.3865 39.9028C35.3685 42.3523 35.2222 45.3993 34.8577 49.1811H23.118C22.9656 47.3888 23.7602 38.5884 21.696 30.0987C22.9873 29.8485 24.2935 29.6828 25.6063 29.6029C27.2678 29.5072 28.9335 29.5072 30.595 29.6029C31.7408 29.7143 32.8763 29.914 33.9914 30.2003C33.9914 30.2003 34.9951 31.2877 35.2998 36.3868C35.3596 37.4055 35.3924 38.5645 35.3865 39.9028Z" fill="black"/>
<path d="M35.3867 39.9028C34.6757 38.6064 33.3853 36.0045 33.5675 34.5258L35.3001 36.4018C35.3598 37.4055 35.3927 38.5645 35.3867 39.9028Z" fill="#00A9F6"/>
<path opacity="0.8" d="M35.3867 39.9028C34.6757 38.6064 33.3853 36.0045 33.5675 34.5258L35.3001 36.4018C35.3598 37.4055 35.3927 38.5645 35.3867 39.9028Z" fill="black"/>
<path d="M31.6916 32.1958C31.5064 34.2868 36.2471 39.3173 36.2471 39.3173L40.0468 36.2225C39.0516 34.5431 37.8592 32.9887 36.495 31.5924C34.2725 29.4445 31.9007 29.8538 31.6916 32.1958Z" fill="#00A9F6"/>
<path opacity="0.7" d="M31.6916 32.1958C31.5064 34.2868 36.2471 39.3173 36.2471 39.3173L40.0468 36.2225C39.0516 34.5431 37.8592 32.9887 36.495 31.5924C34.2725 29.4445 31.9007 29.8538 31.6916 32.1958Z" fill="black"/>
<path d="M33.4926 99.922L33.4807 102.539H31.2881L31.297 99.922H33.4926Z" fill="#CE6F64"/>
<path d="M19.0076 99.922H21.2032L20.7342 102.539H18.5386L19.0076 99.922Z" fill="#CE6F64"/>
<path d="M26.5535 21.5105C26.2339 23.6732 25.9381 24.9159 26.7686 26.29C27.0326 26.735 27.4133 27.0993 27.8695 27.3433C28.3258 27.5874 28.8401 27.7019 29.3568 27.6746C29.8735 27.6472 30.3728 27.4789 30.8007 27.188C31.2286 26.897 31.5687 26.4946 31.7841 26.0241C32.6415 24.2318 33.0238 20.9937 31.1389 19.6255C30.7412 19.3184 30.2696 19.1214 29.7715 19.0544C29.2735 18.9874 28.7666 19.0527 28.3019 19.2438C27.8371 19.4348 27.4308 19.7449 27.1239 20.1428C26.817 20.5407 26.6203 21.0124 26.5535 21.5105Z" fill="#E4897B"/>
<path d="M33.0505 20.4859C32.404 20.839 31.6927 21.0574 30.9594 21.1281C30.4128 23.6284 28.958 26.5051 26.6041 25.6777C25.7079 25.379 24.8117 23.2072 24.7191 21.2805C24.5638 21.4687 24.4593 21.7136 24.3786 21.8152C24.2443 20.9589 24.3412 20.0823 24.6594 19.2761C25.3106 17.43 25.7438 18.6547 26.4517 17.5345C26.9088 16.7937 27.7213 16.4113 29.1402 16.3635C28.7429 16.5696 28.6682 16.9012 29.2567 16.8534C29.8452 16.8056 32.3575 16.6682 33.8212 17.657C32.8324 17.881 33.4358 19.4493 34.7562 18.6129C34.2753 19.3926 33.6778 20.1334 33.0505 20.4859Z" fill="#263238"/>
<path d="M29.2688 22.8488C29.2772 23.3988 29.4614 23.9316 29.7946 24.3693C30.2397 24.9428 30.7505 24.668 30.873 24.0228C30.9805 23.4492 30.873 22.4575 30.3173 22.1109C29.7617 21.7644 29.2658 22.1916 29.2688 22.8488Z" fill="#E4897B"/>
<path d="M26.5924 17.7675C26.2943 17.7486 26.0054 17.6571 25.7508 17.5008C25.4961 17.3446 25.2836 17.1285 25.1317 16.8713C25.1317 16.8713 25.0929 18.6218 26.5924 17.7675Z" fill="#1E2A4C"/>
<path d="M30.6908 49.1811C30.6908 49.1811 28.8506 65.9513 27.7245 72.2335C26.4937 79.1041 21.75 102.034 21.75 102.034H17.7173C17.7173 102.034 20.579 79.6686 21.1765 72.8458C21.8187 65.4525 23.1301 49.1692 23.1301 49.1692L30.6908 49.1811Z" fill="#00A9F6"/>
<path opacity="0.6" d="M30.6908 49.1811C30.6908 49.1811 28.8506 65.9513 27.7245 72.2335C26.4937 79.1041 21.75 102.034 21.75 102.034H17.7173C17.7173 102.034 20.579 79.6686 21.1765 72.8458C21.8187 65.4525 23.1301 49.1692 23.1301 49.1692L30.6908 49.1811Z" fill="#FAFAFA"/>
<path d="M22.3205 100.552C22.3384 100.552 21.965 102.097 21.965 102.097H17.4453L17.4752 100.72L22.3205 100.552Z" fill="#00A9F6"/>
<path opacity="0.1" d="M22.3205 100.552C22.3384 100.552 21.965 102.097 21.965 102.097H17.4453L17.4752 100.72L22.3205 100.552Z" fill="#FAFAFA"/>
<path d="M29.3496 55.1555C26.4908 55.7201 27.2107 66.4591 27.7693 71.9825C28.4504 68.0782 29.3765 60.5654 30.0008 55.2332C29.7987 55.1347 29.5692 55.1073 29.3496 55.1555V55.1555Z" fill="#00A9F6"/>
<path opacity="0.4" d="M29.3496 55.1555C26.4908 55.7201 27.2107 66.4591 27.7693 71.9825C28.4504 68.0782 29.3765 60.5654 30.0008 55.2332C29.7987 55.1347 29.5692 55.1073 29.3496 55.1555V55.1555Z" fill="#FAFAFA"/>
<path d="M34.8549 49.1811C34.8549 49.1811 35.7929 65.5869 35.8108 72.2812C35.8317 79.2415 34.2813 102.034 34.2813 102.034H30.5623C30.5623 102.034 29.5615 79.6477 29.1314 72.813C28.6654 65.3599 27.1389 49.1811 27.1389 49.1811H34.8549Z" fill="#00A9F6"/>
<path opacity="0.6" d="M34.8549 49.1811C34.8549 49.1811 35.7929 65.5869 35.8108 72.2812C35.8317 79.2415 34.2813 102.034 34.2813 102.034H30.5623C30.5623 102.034 29.5615 79.6477 29.1314 72.813C28.6654 65.3599 27.1389 49.1811 27.1389 49.1811H34.8549Z" fill="#FAFAFA"/>
<path d="M35.7539 47.0721L34.7114 47.1558C34.6265 47.1629 34.5442 47.1889 34.4705 47.2318C34.3969 47.2747 34.3338 47.3335 34.2857 47.4039C34.2376 47.4742 34.2059 47.5545 34.1927 47.6387C34.1795 47.7229 34.1853 47.8089 34.2095 47.8906L34.6397 49.3394C34.676 49.4572 34.7402 49.5644 34.8269 49.6519C34.9135 49.7395 35.02 49.8048 35.1374 49.8424C35.2547 49.8799 35.3794 49.8886 35.5008 49.8676C35.6222 49.8466 35.7367 49.7966 35.8346 49.7218C36.3731 49.2206 36.7593 48.5776 36.9488 47.8667L35.7539 47.0721Z" fill="#E4897B"/>
<path d="M33.4003 99.3634C33.3903 99.3619 33.3812 99.3569 33.3746 99.3492C33.368 99.3415 33.3644 99.3317 33.3645 99.3216C33.7767 93.0156 34.7327 77.7539 34.7147 72.2813C34.7147 66.6802 34.0336 54.1519 33.8186 50.4447C33.8181 50.4398 33.8188 50.4348 33.8204 50.4301C33.822 50.4254 33.8246 50.4211 33.8279 50.4174C33.8313 50.4138 33.8354 50.4109 33.84 50.4089C33.8445 50.4069 33.8494 50.4059 33.8544 50.4059C33.8642 50.4059 33.8737 50.4095 33.8809 50.4162C33.8881 50.4228 33.8925 50.432 33.8932 50.4417C34.0964 54.1489 34.7625 66.6773 34.7894 72.2813C34.8073 77.7568 33.8514 93.0185 33.4392 99.3275C33.4392 99.3325 33.4382 99.3374 33.4362 99.342C33.4342 99.3465 33.4313 99.3506 33.4277 99.354C33.424 99.3574 33.4197 99.36 33.415 99.3616C33.4103 99.3632 33.4053 99.3638 33.4003 99.3634V99.3634Z" fill="#00A9F6"/>
<path opacity="0.3" d="M33.4003 99.3634C33.3903 99.3619 33.3812 99.3569 33.3746 99.3492C33.368 99.3415 33.3644 99.3317 33.3645 99.3216C33.7767 93.0156 34.7327 77.7539 34.7147 72.2813C34.7147 66.6802 34.0336 54.1519 33.8186 50.4447C33.8181 50.4398 33.8188 50.4348 33.8204 50.4301C33.822 50.4254 33.8246 50.4211 33.8279 50.4174C33.8313 50.4138 33.8354 50.4109 33.84 50.4089C33.8445 50.4069 33.8494 50.4059 33.8544 50.4059C33.8642 50.4059 33.8737 50.4095 33.8809 50.4162C33.8881 50.4228 33.8925 50.432 33.8932 50.4417C34.0964 54.1489 34.7625 66.6773 34.7894 72.2813C34.8073 77.7568 33.8514 93.0185 33.4392 99.3275C33.4392 99.3325 33.4382 99.3374 33.4362 99.342C33.4342 99.3465 33.4313 99.3506 33.4277 99.354C33.424 99.3574 33.4197 99.36 33.415 99.3616C33.4103 99.3632 33.4053 99.3638 33.4003 99.3634V99.3634Z" fill="#FAFAFA"/>
<path d="M34.9386 100.552C34.9565 100.552 34.7892 102.097 34.7892 102.097H30.2666L30.0903 100.72L34.9386 100.552Z" fill="#00A9F6"/>
<path opacity="0.1" d="M34.9386 100.552C34.9565 100.552 34.7892 102.097 34.7892 102.097H30.2666L30.0903 100.72L34.9386 100.552Z" fill="#FAFAFA"/>
<g filter="url(#filter0_d_57_829)">
<path d="M59.5061 17C50.7043 16.9988 42.0999 19.6078 34.781 24.497C27.462 29.3863 21.7574 36.3362 18.3886 44.4678C15.0197 52.5993 14.1379 61.5473 15.8548 70.18C17.5716 78.8127 21.81 86.7424 28.0338 92.9662C34.2576 99.19 42.1873 103.428 50.82 105.145C59.4527 106.862 68.4007 105.98 76.5322 102.611C84.6638 99.2426 91.6137 93.538 96.5029 86.219C101.392 78.9001 104.001 70.2957 104 61.4939C103.985 49.6978 99.293 38.3891 90.9519 30.048C82.6109 21.707 71.3022 17.0146 59.5061 17V17ZM21.1255 61.5183C21.1157 54.0624 23.2792 46.7652 27.3514 40.5194C31.4236 34.2737 37.2278 29.3502 44.0542 26.3513C50.8805 23.3523 58.4328 22.408 65.7874 23.6338C73.1419 24.8595 79.9798 28.2023 85.4645 33.253L31.2408 87.4522C24.7322 80.3844 21.1212 71.1264 21.1255 61.5183V61.5183ZM59.5061 99.899C50.8728 99.9041 42.4925 96.9834 35.7324 91.6134L89.5828 37.763C94.0578 43.4156 96.8489 50.2151 97.6358 57.3816C98.4227 64.5481 97.1735 71.7913 94.0316 78.2802C90.8897 84.7692 85.9822 90.241 79.8723 94.0681C73.7623 97.8952 66.6973 99.9224 59.4878 99.9173L59.5061 99.899Z" fill="#00A9F6"/>
</g>
</g>
<defs>
<filter id="filter0_d_57_829" x="11" y="17" width="97" height="97" filterUnits="userSpaceOnUse" color-interpolation-filters="sRGB">
<feFlood flood-opacity="0" result="BackgroundImageFix"/>
<feColorMatrix in="SourceAlpha" type="matrix" values="0 0 0 0 0 0 0 0 0 0 0 0 0 0 0 0 0 0 127 0" result="hardAlpha"/>
<feOffset dy="4"/>
<feGaussianBlur stdDeviation="2"/>
<feComposite in2="hardAlpha" operator="out"/>
<feColorMatrix type="matrix" values="0 0 0 0 0 0 0 0 0 0 0 0 0 0 0 0 0 0 0.25 0"/>
<feBlend mode="normal" in2="BackgroundImageFix" result="effect1_dropShadow_57_829"/>
<feBlend mode="normal" in="SourceGraphic" in2="effect1_dropShadow_57_829" result="shape"/>
</filter>
<clipPath id="clip0_57_829">
<rect width="120" height="120" fill="white"/>
</clipPath>
</defs>
</svg>
